AnekTamil-Medium.ufo
<glyph name="oe" format="2">
  <advance width="1696"/>
  <unicode hex="0153"/>
  <anchor x="848" y="0" name="bottom"/>
  <anchor x="848" y="978" name="top"/>
  <outline>
    <contour>
      <point x="498" y="-25" type="curve" smooth="yes"/>
      <point x="693" y="-25"/>
      <point x="812" y="55"/>
      <point x="863" y="200" type="curve"/>
      <point x="869" y="200" type="line"/>
      <point x="925" y="52"/>
      <point x="1055" y="-23"/>
      <point x="1247" y="-23" type="curve" smooth="yes"/>
      <point x="1384" y="-23"/>
      <point x="1499" y="11"/>
      <point x="1584" y="63" type="curve"/>
      <point x="1602" y="230" type="line"/>
      <point x="1504" y="176"/>
      <point x="1395" y="142"/>
      <point x="1272" y="142" type="curve" smooth="yes"/>
      <point x="1059" y="142"/>
      <point x="965" y="239"/>
      <point x="965" y="397" type="curve" smooth="yes"/>
      <point x="965" y="471" type="line"/>
      <point x="965" y="494" type="line"/>
      <point x="965" y="589" type="line" smooth="yes"/>
      <point x="965" y="753"/>
      <point x="1040" y="845"/>
      <point x="1195" y="845" type="curve" smooth="yes"/>
      <point x="1352" y="845"/>
      <point x="1430" y="755"/>
      <point x="1430" y="593" type="curve" smooth="yes"/>
      <point x="1430" y="542"/>
      <point x="1429" y="480"/>
      <point x="1427" y="411" type="curve"/>
      <point x="1607" y="411" type="line"/>
      <point x="1614" y="454"/>
      <point x="1618" y="501"/>
      <point x="1618" y="547" type="curve" smooth="yes"/>
      <point x="1618" y="584" type="line" smooth="yes"/>
      <point x="1618" y="841"/>
      <point x="1483" y="1004"/>
      <point x="1215" y="1004" type="curve" smooth="yes"/>
      <point x="1037" y="1004"/>
      <point x="921" y="923"/>
      <point x="869" y="783" type="curve"/>
      <point x="863" y="783" type="line"/>
      <point x="808" y="923"/>
      <point x="694" y="1004"/>
      <point x="498" y="1004" type="curve" smooth="yes"/>
      <point x="236" y="1004"/>
      <point x="86" y="847"/>
      <point x="86" y="560" type="curve" smooth="yes"/>
      <point x="86" y="421" type="line" smooth="yes"/>
      <point x="86" y="133"/>
      <point x="236" y="-25"/>
    </contour>
    <contour>
      <point x="874" y="411" type="line"/>
      <point x="1567" y="411" type="line"/>
      <point x="1567" y="559" type="line"/>
      <point x="874" y="559" type="line"/>
    </contour>
    <contour>
      <point x="524" y="134" type="curve" smooth="yes"/>
      <point x="366" y="134"/>
      <point x="283" y="231"/>
      <point x="283" y="409" type="curve" smooth="yes"/>
      <point x="283" y="572" type="line" smooth="yes"/>
      <point x="283" y="748"/>
      <point x="366" y="845"/>
      <point x="524" y="845" type="curve" smooth="yes"/>
      <point x="684" y="845"/>
      <point x="769" y="748"/>
      <point x="769" y="572" type="curve" smooth="yes"/>
      <point x="769" y="409" type="line" smooth="yes"/>
      <point x="769" y="231"/>
      <point x="684" y="134"/>
    </contour>
  </outline>
</glyph>
<glyph name="VowelAa.tm" format="2">
  <advance width="2623"/>
  <unicode hex="0B86"/>
  <note>
vowelAa.tm
</note>
  <outline>
    <contour>
      <point x="2270" y="618" type="curve" smooth="yes"/>
      <point x="2133" y="618"/>
      <point x="2052" y="531"/>
      <point x="2029" y="419" type="curve"/>
      <point x="1994" y="419" type="line"/>
      <point x="1994" y="268" type="line"/>
      <point x="2007" y="268" type="line"/>
      <point x="2031" y="382"/>
      <point x="2100" y="451"/>
      <point x="2198" y="451" type="curve" smooth="yes"/>
      <point x="2322" y="451"/>
      <point x="2366" y="365"/>
      <point x="2366" y="200" type="curve" smooth="yes"/>
      <point x="2366" y="121" type="line" smooth="yes"/>
      <point x="2366" y="-133"/>
      <point x="2279" y="-246"/>
      <point x="2031" y="-246" type="curve" smooth="yes"/>
      <point x="1892" y="-246"/>
      <point x="1760" y="-213"/>
      <point x="1645" y="-164" type="curve"/>
      <point x="1673" y="-327" type="line"/>
      <point x="1781" y="-372"/>
      <point x="1909" y="-403"/>
      <point x="2053" y="-403" type="curve" smooth="yes"/>
      <point x="2415" y="-403"/>
      <point x="2553" y="-236"/>
      <point x="2553" y="121" type="curve" smooth="yes"/>
      <point x="2553" y="217" type="line" smooth="yes"/>
      <point x="2553" y="480"/>
      <point x="2472" y="618"/>
    </contour>
    <component base="VowelA.tm"/>
  </outline>
</glyph>
<glyph name="VowelU.tm" format="2">
  <advance width="1714"/>
  <unicode hex="0B89"/>
  <note>
vowelU.tm
</note>
  <outline>
    <contour>
      <point x="696" y="1210" type="curve" smooth="yes"/>
      <point x="330" y="1210"/>
      <point x="135" y="1034"/>
      <point x="135" y="720" type="curve" smooth="yes"/>
      <point x="135" y="651" type="line" smooth="yes"/>
      <point x="135" y="452"/>
      <point x="227" y="324"/>
      <point x="450" y="319" type="curve"/>
      <point x="644" y="369" type="line"/>
      <point x="748" y="395"/>
      <point x="790" y="492"/>
      <point x="790" y="606" type="curve" smooth="yes"/>
      <point x="790" y="659" type="line" smooth="yes"/>
      <point x="790" y="841"/>
      <point x="707" y="942"/>
      <point x="540" y="942" type="curve" smooth="yes"/>
      <point x="410" y="942"/>
      <point x="332" y="867"/>
      <point x="308" y="770" type="curve"/>
      <point x="291" y="770" type="line"/>
      <point x="299" y="657" type="line"/>
      <point x="320" y="744"/>
      <point x="388" y="806"/>
      <point x="480" y="806" type="curve" smooth="yes"/>
      <point x="577" y="806"/>
      <point x="624" y="749"/>
      <point x="624" y="643" type="curve" smooth="yes"/>
      <point x="624" y="580" type="line" smooth="yes"/>
      <point x="624" y="473"/>
      <point x="580" y="407"/>
      <point x="475" y="407" type="curve" smooth="yes"/>
      <point x="359" y="407"/>
      <point x="309" y="481"/>
      <point x="309" y="605" type="curve" smooth="yes"/>
      <point x="309" y="770" type="line"/>
      <point x="301" y="770" type="line"/>
      <point x="306" y="950"/>
      <point x="431" y="1069"/>
      <point x="691" y="1069" type="curve" smooth="yes"/>
      <point x="953" y="1069"/>
      <point x="1060" y="959"/>
      <point x="1060" y="759" type="curve" smooth="yes"/>
      <point x="1060" y="727" type="line" smooth="yes"/>
      <point x="1060" y="533"/>
      <point x="998" y="441"/>
      <point x="758" y="422" type="curve"/>
      <point x="514" y="384" type="line"/>
      <point x="307" y="384" type="line"/>
      <point x="175" y="372"/>
      <point x="117" y="319"/>
      <point x="117" y="211" type="curve" smooth="yes"/>
      <point x="117" y="145"/>
      <point x="137" y="66"/>
      <point x="163" y="0" type="curve"/>
      <point x="1686" y="0" type="line"/>
      <point x="1710" y="139" type="line"/>
      <point x="288" y="139" type="line"/>
      <point x="282" y="158"/>
      <point x="278" y="177"/>
      <point x="278" y="198" type="curve" smooth="yes"/>
      <point x="278" y="245"/>
      <point x="300" y="268"/>
      <point x="364" y="272" type="curve" smooth="yes"/>
      <point x="774" y="299" type="line" smooth="yes"/>
      <point x="1132" y="323"/>
      <point x="1238" y="454"/>
      <point x="1238" y="726" type="curve" smooth="yes"/>
      <point x="1238" y="753" type="line" smooth="yes"/>
      <point x="1238" y="1045"/>
      <point x="1071" y="1210"/>
    </contour>
  </outline>
</glyph>
<glyph name="VowelAi.tm" format="2">
  <advance width="1908"/>
  <unicode hex="0B90"/>
  <note>
vowelAi.tm
</note>
  <outline>
    <contour>
      <point x="665" y="1184" type="curve" smooth="yes"/>
      <point x="317" y="1184"/>
      <point x="130" y="998"/>
      <point x="130" y="670" type="curve" smooth="yes"/>
      <point x="130" y="542" type="line" smooth="yes"/>
      <point x="130" y="319"/>
      <point x="226" y="180"/>
      <point x="437" y="162" type="curve"/>
      <point x="678" y="218" type="line"/>
      <point x="786" y="264"/>
      <point x="829" y="368"/>
      <point x="829" y="497" type="curve" smooth="yes"/>
      <point x="829" y="575" type="line" smooth="yes"/>
      <point x="829" y="772"/>
      <point x="745" y="881"/>
      <point x="564" y="881" type="curve" smooth="yes"/>
      <point x="423" y="881"/>
      <point x="331" y="800"/>
      <point x="308" y="699" type="curve"/>
      <point x="291" y="699" type="line"/>
      <point x="300" y="582" type="line"/>
      <point x="322" y="669"/>
      <point x="398" y="734"/>
      <point x="495" y="734" type="curve" smooth="yes"/>
      <point x="604" y="734"/>
      <point x="654" y="672"/>
      <point x="654" y="559" type="curve" smooth="yes"/>
      <point x="654" y="467" type="line" smooth="yes"/>
      <point x="654" y="350"/>
      <point x="608" y="277"/>
      <point x="492" y="277" type="curve" smooth="yes"/>
      <point x="362" y="277"/>
      <point x="309" y="360"/>
      <point x="309" y="499" type="curve" smooth="yes"/>
      <point x="309" y="699" type="line"/>
      <point x="300" y="699" type="line"/>
      <point x="301" y="909"/>
      <point x="428" y="1035"/>
      <point x="676" y="1035" type="curve" smooth="yes"/>
      <point x="938" y="1035"/>
      <point x="1035" y="902"/>
      <point x="1035" y="652" type="curve" smooth="yes"/>
      <point x="1035" y="422" type="line"/>
      <point x="1214" y="422" type="line"/>
      <point x="1214" y="754" type="line" smooth="yes"/>
      <point x="1214" y="950"/>
      <point x="1293" y="1023"/>
      <point x="1419" y="1023" type="curve" smooth="yes"/>
      <point x="1559" y="1023"/>
      <point x="1613" y="932"/>
      <point x="1613" y="769" type="curve" smooth="yes"/>
      <point x="1613" y="681" type="line" smooth="yes"/>
      <point x="1613" y="451"/>
      <point x="1532" y="343"/>
      <point x="1266" y="325" type="curve" smooth="yes"/>
      <point x="646" y="282" type="line"/>
      <point x="412" y="218" type="line"/>
      <point x="241" y="182"/>
      <point x="162" y="79"/>
      <point x="162" y="-101" type="curve" smooth="yes"/>
      <point x="162" y="-106" type="line" smooth="yes"/>
      <point x="162" y="-346"/>
      <point x="309" y="-490"/>
      <point x="617" y="-490" type="curve" smooth="yes"/>
      <point x="877" y="-490"/>
      <point x="1007" y="-375"/>
      <point x="1023" y="-169" type="curve"/>
      <point x="1028" y="-169" type="line"/>
      <point x="1044" y="-373"/>
      <point x="1160" y="-489"/>
      <point x="1396" y="-489" type="curve" smooth="yes"/>
      <point x="1663" y="-489"/>
      <point x="1770" y="-341"/>
      <point x="1770" y="-75" type="curve" smooth="yes"/>
      <point x="1770" y="-8"/>
      <point x="1765" y="58"/>
      <point x="1753" y="121" type="curve"/>
      <point x="1576" y="130" type="line"/>
      <point x="1588" y="65"/>
      <point x="1593" y="-2"/>
      <point x="1593" y="-70" type="curve" smooth="yes"/>
      <point x="1593" y="-239"/>
      <point x="1530" y="-335"/>
      <point x="1367" y="-335" type="curve" smooth="yes"/>
      <point x="1209" y="-335"/>
      <point x="1119" y="-256"/>
      <point x="1119" y="-51" type="curve" smooth="yes"/>
      <point x="1119" y="62" type="line"/>
      <point x="936" y="62" type="line"/>
      <point x="936" y="-38" type="line" smooth="yes"/>
      <point x="936" y="-251"/>
      <point x="832" y="-336"/>
      <point x="638" y="-336" type="curve" smooth="yes"/>
      <point x="434" y="-336"/>
      <point x="343" y="-248"/>
      <point x="343" y="-101" type="curve" smooth="yes"/>
      <point x="343" y="-98" type="line" smooth="yes"/>
      <point x="343" y="48"/>
      <point x="419" y="121"/>
      <point x="652" y="136" type="curve" smooth="yes"/>
      <point x="1301" y="177" type="line" smooth="yes"/>
      <point x="1682" y="201"/>
      <point x="1793" y="356"/>
      <point x="1793" y="687" type="curve" smooth="yes"/>
      <point x="1793" y="768" type="line" smooth="yes"/>
      <point x="1793" y="1031"/>
      <point x="1694" y="1176"/>
      <point x="1450" y="1176" type="curve" smooth="yes"/>
      <point x="1235" y="1176"/>
      <point x="1135" y="1053"/>
      <point x="1119" y="847" type="curve"/>
      <point x="1112" y="847" type="line"/>
      <point x="1082" y="1050"/>
      <point x="955" y="1184"/>
    </contour>
  </outline>
</glyph>
<glyph name="VowelOo.tm" format="2">
  <advance width="1816"/>
  <unicode hex="0B93"/>
  <note>
vowelOo.tm
</note>
  <outline>
    <contour>
      <point x="1714" y="240" type="line"/>
      <point x="1461" y="240" type="line"/>
      <point x="1326" y="164" type="line"/>
      <point x="1326" y="154" type="line"/>
      <point x="1233" y="140"/>
      <point x="1190" y="88"/>
      <point x="1184" y="-33" type="curve" smooth="yes"/>
      <point x="1181" y="-89" type="line" smooth="yes"/>
      <point x="1170" y="-303"/>
      <point x="1086" y="-393"/>
      <point x="901" y="-394" type="curve" smooth="yes"/>
      <point x="895" y="-394"/>
      <point x="889" y="-394"/>
      <point x="881" y="-394" type="curve"/>
      <point x="881" y="-387" type="line"/>
      <point x="814" y="-387" type="line"/>
      <point x="664" y="-375"/>
      <point x="585" y="-291"/>
      <point x="585" y="-149" type="curve" smooth="yes"/>
      <point x="585" y="-127" type="line" smooth="yes"/>
      <point x="585" y="-28"/>
      <point x="631" y="26"/>
      <point x="712" y="26" type="curve" smooth="yes"/>
      <point x="793" y="26"/>
      <point x="834" y="-23"/>
      <point x="834" y="-131" type="curve" smooth="yes"/>
      <point x="834" y="-168" type="line" smooth="yes"/>
      <point x="834" y="-265"/>
      <point x="810" y="-352"/>
      <point x="777" y="-406" type="curve"/>
      <point x="881" y="-405" type="line"/>
      <point x="881" y="-388" type="line"/>
      <point x="966" y="-350"/>
      <point x="999" y="-255"/>
      <point x="999" y="-136" type="curve" smooth="yes"/>
      <point x="999" y="-101" type="line" smooth="yes"/>
      <point x="999" y="72"/>
      <point x="900" y="161"/>
      <point x="728" y="161" type="curve" smooth="yes"/>
      <point x="691" y="161"/>
      <point x="647" y="154"/>
      <point x="615" y="143" type="curve"/>
      <point x="601" y="135"/>
      <point x="585" y="125"/>
      <point x="572" y="117" type="curve"/>
      <point x="474" y="88"/>
      <point x="425" y="-3"/>
      <point x="425" y="-123" type="curve" smooth="yes"/>
      <point x="425" y="-149" type="line" smooth="yes"/>
      <point x="425" y="-388"/>
      <point x="582" y="-529"/>
      <point x="893" y="-529" type="curve" smooth="yes"/>
      <point x="1205" y="-529"/>
      <point x="1339" y="-388"/>
      <point x="1355" y="-96" type="curve" smooth="yes"/>
      <point x="1358" y="-40" type="line" smooth="yes"/>
      <point x="1363" y="47"/>
      <point x="1385" y="94"/>
      <point x="1478" y="94" type="curve" smooth="yes"/>
      <point x="1695" y="94" type="line"/>
    </contour>
    <contour>
      <point x="907" y="1242" type="curve" smooth="yes"/>
      <point x="385" y="1242"/>
      <point x="106" y="1006"/>
      <point x="106" y="592" type="curve" smooth="yes"/>
      <point x="106" y="501" type="line" smooth="yes"/>
      <point x="106" y="257"/>
      <point x="218" y="102"/>
      <point x="474" y="102" type="curve" smooth="yes"/>
      <point x="529" y="102"/>
      <point x="577" y="112"/>
      <point x="618" y="130" type="curve"/>
      <point x="676" y="154" type="line"/>
      <point x="769" y="208"/>
      <point x="809" y="312"/>
      <point x="809" y="444" type="curve" smooth="yes"/>
      <point x="809" y="506" type="line" smooth="yes"/>
      <point x="809" y="715"/>
      <point x="721" y="825"/>
      <point x="543" y="825" type="curve" smooth="yes"/>
      <point x="399" y="825"/>
      <point x="311" y="746"/>
      <point x="285" y="645" type="curve"/>
      <point x="270" y="645" type="line"/>
      <point x="275" y="520" type="line"/>
      <point x="296" y="607"/>
      <point x="373" y="672"/>
      <point x="472" y="672" type="curve" smooth="yes"/>
      <point x="583" y="672"/>
      <point x="632" y="609"/>
      <point x="632" y="493" type="curve" smooth="yes"/>
      <point x="632" y="431" type="line" smooth="yes"/>
      <point x="632" y="312"/>
      <point x="583" y="241"/>
      <point x="469" y="241" type="curve" smooth="yes"/>
      <point x="342" y="241"/>
      <point x="284" y="322"/>
      <point x="284" y="461" type="curve" smooth="yes"/>
      <point x="284" y="635" type="line"/>
      <point x="278" y="635" type="line"/>
      <point x="283" y="926"/>
      <point x="500" y="1088"/>
      <point x="904" y="1088" type="curve" smooth="yes"/>
      <point x="1345" y="1088"/>
      <point x="1505" y="903"/>
      <point x="1505" y="590" type="curve" smooth="yes"/>
      <point x="1505" y="510" type="line" smooth="yes"/>
      <point x="1505" y="357"/>
      <point x="1458" y="281"/>
      <point x="1340" y="281" type="curve" smooth="yes"/>
      <point x="1215" y="281"/>
      <point x="1165" y="364"/>
      <point x="1165" y="528" type="curve" smooth="yes"/>
      <point x="1165" y="617"/>
      <point x="1168" y="690"/>
      <point x="1177" y="778" type="curve"/>
      <point x="1007" y="778" type="line"/>
      <point x="999" y="699"/>
      <point x="992" y="616"/>
      <point x="992" y="528" type="curve" smooth="yes"/>
      <point x="992" y="291"/>
      <point x="1083" y="159"/>
      <point x="1326" y="159" type="curve" smooth="yes"/>
      <point x="1389" y="159"/>
      <point x="1446" y="171"/>
      <point x="1494" y="193" type="curve"/>
      <point x="1627" y="233"/>
      <point x="1683" y="351"/>
      <point x="1683" y="545" type="curve" smooth="yes"/>
      <point x="1683" y="601" type="line" smooth="yes"/>
      <point x="1683" y="990"/>
      <point x="1460" y="1242"/>
    </contour>
  </outline>
</glyph>
<glyph name="Pa.tm" format="2">
  <advance width="1469"/>
  <unicode hex="0BAA"/>
  <note>
Pa.tm
</note>
  <anchor x="708" y="1239" name="top"/>
  <outline>
    <contour>
      <point x="1111" y="1147" type="line"/>
      <point x="1111" y="158" type="line"/>
      <point x="666" y="158" type="line"/>
      <point x="666" y="0" type="line"/>
      <point x="1301" y="0" type="line"/>
      <point x="1301" y="1147" type="line"/>
    </contour>
    <contour>
      <point x="357" y="1147" type="line"/>
      <point x="168" y="1147" type="line"/>
      <point x="168" y="0" type="line"/>
      <point x="901" y="0" type="line"/>
      <point x="901" y="158" type="line"/>
      <point x="357" y="158" type="line"/>
    </contour>
  </outline>
</glyph>
<glyph name="Ma.tm" format="2">
  <advance width="1686"/>
  <unicode hex="0BAE"/>
  <note>
Ma.tm
</note>
  <anchor x="853" y="1239" name="top"/>
  <outline>
    <contour>
      <point x="168" y="1147" type="line"/>
      <point x="168" y="0" type="line"/>
      <point x="1002" y="0" type="line" smooth="yes"/>
      <point x="1412" y="0"/>
      <point x="1553" y="147"/>
      <point x="1553" y="521" type="curve" smooth="yes"/>
      <point x="1553" y="681" type="line" smooth="yes"/>
      <point x="1553" y="997"/>
      <point x="1413" y="1147"/>
      <point x="1039" y="1147" type="curve" smooth="yes"/>
      <point x="766" y="1147" type="line"/>
      <point x="766" y="46" type="line"/>
      <point x="952" y="46" type="line"/>
      <point x="952" y="995" type="line"/>
      <point x="1049" y="995" type="line" smooth="yes"/>
      <point x="1290" y="995"/>
      <point x="1364" y="895"/>
      <point x="1364" y="683" type="curve" smooth="yes"/>
      <point x="1364" y="517" type="line" smooth="yes"/>
      <point x="1364" y="251"/>
      <point x="1294" y="153"/>
      <point x="1015" y="153" type="curve" smooth="yes"/>
      <point x="354" y="153" type="line"/>
      <point x="354" y="1147" type="line"/>
    </contour>
  </outline>
</glyph>
<glyph name="Ra.tm" format="2">
  <advance width="1161"/>
  <unicode hex="0BB0"/>
  <note>
Ra.tm
</note>
  <anchor x="552" y="1239" name="top"/>
  <outline>
    <contour>
      <point x="945" y="1098" type="line"/>
      <point x="759" y="1098" type="line"/>
      <point x="759" y="-101" type="line"/>
      <point x="122" y="-191" type="line"/>
      <point x="122" y="-345" type="line"/>
      <point x="945" y="-239" type="line"/>
    </contour>
    <contour>
      <point x="898" y="1147" type="line"/>
      <point x="168" y="1147" type="line"/>
      <point x="168" y="0" type="line"/>
      <point x="354" y="0" type="line"/>
      <point x="354" y="994" type="line"/>
      <point x="898" y="994" type="line"/>
    </contour>
    <component base="RaBeak_Nonexporting" xOffset="664"/>
  </outline>
</glyph>
<glyph name="MatraUDflt.tm" format="2">
  <advance width="1096"/>
  <unicode hex="0BC1"/>
  <note>
MatraUDflt.tm
</note>
  <outline>
    <contour>
      <point x="11" y="994" type="line"/>
      <point x="609" y="994" type="line" smooth="yes"/>
      <point x="777" y="994"/>
      <point x="842" y="916"/>
      <point x="842" y="764" type="curve" smooth="yes"/>
      <point x="842" y="706" type="line" smooth="yes"/>
      <point x="842" y="572"/>
      <point x="791" y="502"/>
      <point x="685" y="502" type="curve" smooth="yes"/>
      <point x="571" y="502"/>
      <point x="520" y="583"/>
      <point x="520" y="720" type="curve" smooth="yes"/>
      <point x="520" y="790" type="line" smooth="yes"/>
      <point x="520" y="879"/>
      <point x="531" y="946"/>
      <point x="552" y="998" type="curve"/>
      <point x="532" y="997" type="line"/>
      <point x="367" y="949" type="line"/>
      <point x="355" y="910"/>
      <point x="347" y="849"/>
      <point x="347" y="773" type="curve" smooth="yes"/>
      <point x="347" y="712" type="line"/>
      <point x="347" y="499"/>
      <point x="451" y="357"/>
      <point x="686" y="357" type="curve" smooth="yes"/>
      <point x="912" y="357"/>
      <point x="1018" y="486"/>
      <point x="1018" y="709" type="curve" smooth="yes"/>
      <point x="1018" y="760" type="line" smooth="yes"/>
      <point x="1018" y="1007"/>
      <point x="891" y="1147"/>
      <point x="585" y="1147" type="curve" smooth="yes"/>
      <point x="11" y="1147" type="line"/>
    </contour>
  </outline>
</glyph>
<glyph name="MatraUuDflt.tm" format="2">
  <advance width="1579"/>
  <unicode hex="0BC2"/>
  <note>
MatraUuDflt.tm
</note>
  <outline>
    <contour>
      <point x="5" y="1147" type="line"/>
      <point x="5" y="994" type="line"/>
      <point x="636" y="994" type="line"/>
      <point x="790" y="994"/>
      <point x="850" y="922"/>
      <point x="850" y="781" type="curve" smooth="yes"/>
      <point x="850" y="703" type="line" smooth="yes"/>
      <point x="850" y="581"/>
      <point x="805" y="519"/>
      <point x="703" y="519" type="curve" smooth="yes"/>
      <point x="586" y="519"/>
      <point x="538" y="598"/>
      <point x="538" y="769" type="curve" smooth="yes"/>
      <point x="538" y="853"/>
      <point x="540" y="932"/>
      <point x="551" y="1002" type="curve"/>
      <point x="377" y="1014" type="line"/>
      <point x="367" y="946"/>
      <point x="363" y="863"/>
      <point x="363" y="777" type="curve" smooth="yes"/>
      <point x="363" y="519"/>
      <point x="461" y="376"/>
      <point x="707" y="376" type="curve" smooth="yes"/>
      <point x="924" y="376"/>
      <point x="1024" y="497"/>
      <point x="1024" y="707" type="curve" smooth="yes"/>
      <point x="1024" y="778" type="line" smooth="yes"/>
      <point x="1024" y="1012"/>
      <point x="911" y="1140"/>
      <point x="642" y="1140" type="curve" smooth="yes"/>
      <point x="515" y="1140" type="line"/>
      <point x="459" y="1147" type="line"/>
    </contour>
    <contour>
      <point x="938" y="1527" type="curve" smooth="yes"/>
      <point x="609" y="1527"/>
      <point x="427" y="1352"/>
      <point x="387" y="1089" type="curve"/>
      <point x="561" y="1080" type="line"/>
      <point x="590" y="1259"/>
      <point x="703" y="1369"/>
      <point x="928" y="1369" type="curve" smooth="yes"/>
      <point x="1197" y="1369"/>
      <point x="1298" y="1197"/>
      <point x="1298" y="883" type="curve" smooth="yes"/>
      <point x="1298" y="679"/>
      <point x="1282" y="491"/>
      <point x="1251" y="309" type="curve"/>
      <point x="1440" y="310" type="line"/>
      <point x="1469" y="489"/>
      <point x="1484" y="679"/>
      <point x="1484" y="878" type="curve" smooth="yes"/>
      <point x="1484" y="1293"/>
      <point x="1326" y="1527"/>
    </contour>
  </outline>
</glyph>
<glyph name="MatraAi.tm" format="2">
  <advance width="2431"/>
  <unicode hex="0BC8"/>
  <note>
MatraAi.tm
</note>
  <outline>
    <contour>
      <point x="1855" y="-14" type="line"/>
      <point x="1877" y="-19"/>
      <point x="1911" y="-22"/>
      <point x="1939" y="-22" type="curve" smooth="yes"/>
      <point x="2201" y="-22"/>
      <point x="2305" y="151"/>
      <point x="2305" y="444" type="curve" smooth="yes"/>
      <point x="2305" y="622" type="line" smooth="yes"/>
      <point x="2305" y="997"/>
      <point x="2148" y="1177"/>
      <point x="1769" y="1177" type="curve" smooth="yes"/>
      <point x="1573" y="1177"/>
      <point x="1423" y="1126"/>
      <point x="1332" y="1066" type="curve"/>
      <point x="1425" y="956" type="line"/>
      <point x="1511" y="998"/>
      <point x="1624" y="1025"/>
      <point x="1748" y="1025" type="curve" smooth="yes"/>
      <point x="2011" y="1025"/>
      <point x="2117" y="900"/>
      <point x="2117" y="618" type="curve" smooth="yes"/>
      <point x="2117" y="441" type="line" smooth="yes"/>
      <point x="2117" y="249"/>
      <point x="2062" y="130"/>
      <point x="1898" y="130" type="curve" smooth="yes"/>
      <point x="1872" y="130"/>
      <point x="1849" y="132"/>
      <point x="1828" y="137" type="curve"/>
    </contour>
    <contour>
      <point x="935" y="1180" type="curve" smooth="yes"/>
      <point x="403" y="1180"/>
      <point x="124" y="952"/>
      <point x="124" y="538" type="curve" smooth="yes"/>
      <point x="124" y="395" type="line" smooth="yes"/>
      <point x="124" y="140"/>
      <point x="237" y="-23"/>
      <point x="497" y="-23" type="curve" smooth="yes"/>
      <point x="739" y="-23"/>
      <point x="841" y="117"/>
      <point x="841" y="334" type="curve" smooth="yes"/>
      <point x="841" y="423" type="line" smooth="yes"/>
      <point x="841" y="635"/>
      <point x="752" y="750"/>
      <point x="570" y="750" type="curve" smooth="yes"/>
      <point x="422" y="750"/>
      <point x="331" y="664"/>
      <point x="307" y="559" type="curve"/>
      <point x="292" y="559" type="line"/>
      <point x="297" y="434" type="line"/>
      <point x="318" y="520"/>
      <point x="393" y="592"/>
      <point x="496" y="592" type="curve" smooth="yes"/>
      <point x="611" y="592"/>
      <point x="661" y="527"/>
      <point x="661" y="405" type="curve" smooth="yes"/>
      <point x="661" y="325" type="line" smooth="yes"/>
      <point x="661" y="199"/>
      <point x="610" y="125"/>
      <point x="493" y="125" type="curve" smooth="yes"/>
      <point x="362" y="125"/>
      <point x="306" y="211"/>
      <point x="306" y="356" type="curve"/>
      <point x="306" y="539" type="line"/>
      <point x="300" y="539" type="line"/>
      <point x="300" y="546"/>
      <point x="300" y="553"/>
      <point x="300" y="557" type="curve" smooth="yes"/>
      <point x="304" y="866"/>
      <point x="515" y="1025"/>
      <point x="939" y="1025" type="curve" smooth="yes"/>
      <point x="1144" y="1025"/>
      <point x="1280" y="997"/>
      <point x="1367" y="962" type="curve"/>
      <point x="1379" y="958" type="line"/>
      <point x="1536" y="889"/>
      <point x="1584" y="743"/>
      <point x="1584" y="540" type="curve" smooth="yes"/>
      <point x="1584" y="405" type="line" smooth="yes"/>
      <point x="1584" y="233"/>
      <point x="1535" y="135"/>
      <point x="1407" y="135" type="curve" smooth="yes"/>
      <point x="1276" y="135"/>
      <point x="1222" y="233"/>
      <point x="1222" y="405" type="curve" smooth="yes"/>
      <point x="1222" y="540" type="line" smooth="yes"/>
      <point x="1222" y="743"/>
      <point x="1273" y="889"/>
      <point x="1434" y="958" type="curve"/>
      <point x="1351" y="1059" type="line"/>
      <point x="1120" y="979"/>
      <point x="1037" y="778"/>
      <point x="1037" y="531" type="curve" smooth="yes"/>
      <point x="1037" y="401" type="line" smooth="yes"/>
      <point x="1037" y="144"/>
      <point x="1147" y="-23"/>
      <point x="1407" y="-23" type="curve" smooth="yes"/>
      <point x="1665" y="-23"/>
      <point x="1769" y="142"/>
      <point x="1769" y="401" type="curve" smooth="yes"/>
      <point x="1769" y="531" type="line" smooth="yes"/>
      <point x="1769" y="778"/>
      <point x="1690" y="965"/>
      <point x="1494" y="1061" type="curve"/>
      <point x="1492" y="1066" type="line"/>
      <point x="1378" y="1132"/>
      <point x="1201" y="1180"/>
    </contour>
  </outline>
</glyph>
<glyph name="Three.tm" format="2">
  <advance width="1841"/>
  <unicode hex="0BE9"/>
  <note>
Three.tm
</note>
  <outline>
    <contour>
      <point x="752" y="1095" type="line"/>
      <point x="752" y="0" type="line"/>
      <point x="938" y="0" type="line"/>
      <point x="938" y="1095" type="line"/>
    </contour>
    <contour>
      <point x="1219" y="762" type="curve" smooth="yes"/>
      <point x="1056" y="762"/>
      <point x="969" y="669"/>
      <point x="945" y="556" type="curve"/>
      <point x="927" y="556" type="line"/>
      <point x="927" y="429" type="line"/>
      <point x="932" y="429" type="line"/>
      <point x="964" y="531"/>
      <point x="1038" y="594"/>
      <point x="1138" y="594" type="curve" smooth="yes"/>
      <point x="1261" y="594"/>
      <point x="1310" y="517"/>
      <point x="1310" y="377" type="curve" smooth="yes"/>
      <point x="1310" y="339" type="line" smooth="yes"/>
      <point x="1310" y="186"/>
      <point x="1280" y="98"/>
      <point x="1206" y="13" type="curve"/>
      <point x="1206" y="0" type="line"/>
      <point x="1811" y="0" type="line"/>
      <point x="1837" y="154" type="line"/>
      <point x="1364" y="154" type="line"/>
      <point x="1422" y="103" type="line"/>
      <point x="1465" y="173"/>
      <point x="1490" y="255"/>
      <point x="1490" y="402" type="curve" smooth="yes"/>
      <point x="1490" y="441" type="line" smooth="yes"/>
      <point x="1490" y="648"/>
      <point x="1404" y="762"/>
    </contour>
    <contour>
      <point x="1108" y="1146" type="line"/>
      <point x="168" y="1146" type="line"/>
      <point x="168" y="0" type="line"/>
      <point x="354" y="0" type="line"/>
      <point x="354" y="994" type="line"/>
      <point x="1108" y="994" type="line"/>
    </contour>
    <component base="RaBeak_Nonexporting" xOffset="866"/>
  </outline>
</glyph>
<glyph name="Ten.tm" format="2">
  <advance width="1690"/>
  <unicode hex="0BF0"/>
  <note>
Ten.tm
</note>
  <outline>
    <contour>
      <point x="788" y="1587" type="curve" smooth="yes"/>
      <point x="554" y="1587"/>
      <point x="337" y="1547"/>
      <point x="161" y="1498" type="curve"/>
      <point x="130" y="1337" type="line"/>
      <point x="328" y="1392"/>
      <point x="551" y="1430"/>
      <point x="777" y="1430" type="curve" smooth="yes"/>
      <point x="1218" y="1430"/>
      <point x="1357" y="1269"/>
      <point x="1357" y="838" type="curve" smooth="yes"/>
      <point x="1357" y="529" type="line" smooth="yes"/>
      <point x="1357" y="278"/>
      <point x="1299" y="134"/>
      <point x="1134" y="134" type="curve" smooth="yes"/>
      <point x="994" y="134"/>
      <point x="915" y="208"/>
      <point x="915" y="402" type="curve" smooth="yes"/>
      <point x="915" y="1146" type="line"/>
      <point x="729" y="1146" type="line"/>
      <point x="729" y="370" type="line"/>
      <point x="729" y="206"/>
      <point x="676" y="135"/>
      <point x="550" y="135" type="curve" smooth="yes"/>
      <point x="434" y="135"/>
      <point x="367" y="207"/>
      <point x="367" y="370" type="curve" smooth="yes"/>
      <point x="367" y="1146" type="line"/>
      <point x="181" y="1146" type="line"/>
      <point x="181" y="378" type="line" smooth="yes"/>
      <point x="181" y="102"/>
      <point x="303" y="-23"/>
      <point x="524" y="-23" type="curve" smooth="yes"/>
      <point x="714" y="-23"/>
      <point x="805" y="79"/>
      <point x="822" y="260" type="curve"/>
      <point x="829" y="260" type="line"/>
      <point x="850" y="79"/>
      <point x="962" y="-24"/>
      <point x="1171" y="-24" type="curve" smooth="yes"/>
      <point x="1436" y="-24"/>
      <point x="1545" y="175"/>
      <point x="1545" y="526" type="curve" smooth="yes"/>
      <point x="1545" y="838" type="line" smooth="yes"/>
      <point x="1545" y="1366"/>
      <point x="1354" y="1587"/>
    </contour>
  </outline>
</glyph>
<glyph name="DebitSign.tm" format="2">
  <advance width="2020"/>
  <unicode hex="0BF6"/>
  <note>
DebitSign.tm
</note>
  <anchor x="708" y="1239" name="top"/>
  <outline>
    <contour>
      <point x="1665" y="1146" type="line"/>
      <point x="1665" y="-309" type="line"/>
      <point x="1852" y="-309" type="line"/>
      <point x="1852" y="1146" type="line"/>
    </contour>
    <contour>
      <point x="690" y="-741" type="curve" smooth="yes"/>
      <point x="1080" y="-741"/>
      <point x="1253" y="-572"/>
      <point x="1289" y="-300" type="curve"/>
      <point x="1292" y="-258" type="line"/>
      <point x="1297" y="-199"/>
      <point x="1301" y="-98"/>
      <point x="1301" y="-3" type="curve" smooth="yes"/>
      <point x="1301" y="78" type="line"/>
      <point x="1117" y="74" type="line"/>
      <point x="1117" y="-6" type="line" smooth="yes"/>
      <point x="1117" y="-100"/>
      <point x="1112" y="-197"/>
      <point x="1106" y="-253" type="curve"/>
      <point x="1103" y="-299" type="line"/>
      <point x="1085" y="-479"/>
      <point x="959" y="-590"/>
      <point x="684" y="-590" type="curve" smooth="yes"/>
      <point x="389" y="-590"/>
      <point x="269" y="-464"/>
      <point x="255" y="-336" type="curve"/>
      <point x="1160" y="-336" type="line"/>
      <point x="1216" y="-336" type="line"/>
      <point x="1852" y="-336" type="line"/>
      <point x="1852" y="-186" type="line"/>
      <point x="53" y="-186" type="line"/>
      <point x="65" y="-526"/>
      <point x="258" y="-741"/>
    </contour>
    <component base="Pa.tm"/>
  </outline>
</glyph>
<glyph name="AsAboveSign.tm" format="2">
  <advance width="3805"/>
  <unicode hex="0BF8"/>
  <note>
AsAboveSign.tm
</note>
  <outline>
    <contour>
      <point x="132" y="698" type="curve" smooth="yes"/>
      <point x="132" y="571" type="line" smooth="yes"/>
      <point x="132" y="204"/>
      <point x="316" y="-21"/>
      <point x="718" y="-21" type="curve" smooth="yes"/>
      <point x="1039" y="-21"/>
      <point x="1165" y="135"/>
      <point x="1165" y="381" type="curve" smooth="yes"/>
      <point x="1165" y="416" type="line" smooth="yes"/>
      <point x="1165" y="653"/>
      <point x="1055" y="781"/>
      <point x="833" y="781" type="curve" smooth="yes"/>
      <point x="605" y="781"/>
      <point x="482" y="661"/>
      <point x="482" y="446" type="curve"/>
      <point x="482" y="413" type="line" smooth="yes"/>
      <point x="482" y="282"/>
      <point x="536" y="184"/>
      <point x="630" y="133" type="curve"/>
      <point x="630" y="124" type="line"/>
      <point x="725" y="117" type="line"/>
      <point x="685" y="182"/>
      <point x="661" y="270"/>
      <point x="661" y="367" type="curve" smooth="yes"/>
      <point x="661" y="413" type="line" smooth="yes"/>
      <point x="661" y="554"/>
      <point x="717" y="625"/>
      <point x="828" y="625" type="curve" smooth="yes"/>
      <point x="944" y="625"/>
      <point x="985" y="551"/>
      <point x="985" y="416" type="curve" smooth="yes"/>
      <point x="985" y="379" type="line" smooth="yes"/>
      <point x="985" y="221"/>
      <point x="929" y="124"/>
      <point x="747" y="124" type="curve" smooth="yes"/>
      <point x="719" y="124"/>
      <point x="689" y="126"/>
      <point x="654" y="130" type="curve"/>
      <point x="630" y="131" type="line"/>
      <point x="630" y="127" type="line"/>
      <point x="410" y="164"/>
      <point x="316" y="317"/>
      <point x="316" y="563" type="curve" smooth="yes"/>
      <point x="316" y="697" type="line" smooth="yes"/>
      <point x="316" y="1065"/>
      <point x="508" y="1264"/>
      <point x="875" y="1264" type="curve" smooth="yes"/>
      <point x="1258" y="1264"/>
      <point x="1417" y="1083"/>
      <point x="1441" y="791" type="curve"/>
      <point x="1569" y="943" type="line"/>
      <point x="1525" y="1216"/>
      <point x="1308" y="1424"/>
      <point x="878" y="1424" type="curve" smooth="yes"/>
      <point x="396" y="1424"/>
      <point x="132" y="1169"/>
    </contour>
    <contour>
      <point x="1378" y="563" type="curve" smooth="yes"/>
      <point x="1378" y="395" type="line" smooth="yes"/>
      <point x="1378" y="140"/>
      <point x="1491" y="-23"/>
      <point x="1751" y="-23" type="curve" smooth="yes"/>
      <point x="1993" y="-23"/>
      <point x="2095" y="117"/>
      <point x="2095" y="334" type="curve" smooth="yes"/>
      <point x="2095" y="423" type="line" smooth="yes"/>
      <point x="2095" y="635"/>
      <point x="2006" y="750"/>
      <point x="1824" y="750" type="curve" smooth="yes"/>
      <point x="1676" y="750"/>
      <point x="1585" y="664"/>
      <point x="1561" y="559" type="curve"/>
      <point x="1546" y="559" type="line"/>
      <point x="1551" y="434" type="line"/>
      <point x="1572" y="520"/>
      <point x="1647" y="592"/>
      <point x="1751" y="592" type="curve" smooth="yes"/>
      <point x="1865" y="592"/>
      <point x="1915" y="527"/>
      <point x="1915" y="405" type="curve" smooth="yes"/>
      <point x="1915" y="325" type="line" smooth="yes"/>
      <point x="1915" y="199"/>
      <point x="1864" y="125"/>
      <point x="1748" y="125" type="curve" smooth="yes"/>
      <point x="1616" y="125"/>
      <point x="1560" y="211"/>
      <point x="1560" y="356" type="curve"/>
      <point x="1560" y="559" type="line"/>
      <point x="1554" y="559" type="line"/>
      <point x="1554" y="566"/>
      <point x="1554" y="569"/>
      <point x="1554" y="575" type="curve" smooth="yes"/>
      <point x="1557" y="862"/>
      <point x="1695" y="1013"/>
      <point x="1976" y="1013" type="curve" smooth="yes"/>
      <point x="2256" y="1013"/>
      <point x="2365" y="864"/>
      <point x="2365" y="591" type="curve" smooth="yes"/>
      <point x="2365" y="485" type="line" smooth="yes"/>
      <point x="2365" y="277"/>
      <point x="2328" y="143"/>
      <point x="2239" y="13" type="curve"/>
      <point x="2239" y="0" type="line"/>
      <point x="2785" y="0" type="line"/>
      <point x="2785" y="153" type="line"/>
      <point x="2408" y="153" type="line"/>
      <point x="2425" y="72" type="line"/>
      <point x="2513" y="179"/>
      <point x="2554" y="307"/>
      <point x="2554" y="508" type="curve" smooth="yes"/>
      <point x="2554" y="610" type="line" smooth="yes"/>
      <point x="2554" y="967"/>
      <point x="2396" y="1174"/>
      <point x="1992" y="1174" type="curve" smooth="yes"/>
      <point x="1755" y="1174"/>
      <point x="1576" y="1082"/>
      <point x="1513" y="931" type="curve"/>
      <point x="1479" y="932" type="line"/>
      <point x="1406" y="842"/>
      <point x="1378" y="711"/>
    </contour>
    <component base="Ssa_Above_NonExporting" xOffset="2482"/>
    <component base="Ssa_Below_NonExporting" xOffset="2903"/>
  </outline>
</glyph>
<glyph name="endash" format="2">
  <advance width="1026"/>
  <unicode hex="2013"/>
  <outline>
    <contour>
      <point x="114" y="442" type="line"/>
      <point x="912" y="442" type="line"/>
      <point x="912" y="602" type="line"/>
      <point x="114" y="602" type="line"/>
    </contour>
  </outline>
</glyph>
<glyph name="CaMatraU.tm" format="2">
  <advance width="1707"/>
  <note>
CaMatraU.tm
</note>
  <outline>
    <contour>
      <point x="922" y="544" type="line"/>
      <point x="1677" y="544" type="line"/>
      <point x="1656" y="694" type="line"/>
      <point x="922" y="694" type="line"/>
    </contour>
    <contour>
      <point x="1277" y="592" type="line"/>
      <point x="1277" y="0" type="line"/>
      <point x="1462" y="0" type="line"/>
      <point x="1462" y="592" type="line"/>
    </contour>
    <component base="KaComponent_Nonexporting" xOffset="74"/>
    <component base="KaBeak_Nonexporting" xOffset="1022"/>
  </outline>
</glyph>
<glyph name="HaMatraI_Simple.tm" format="2">
  <advance width="3613"/>
  <note>
HaMatraI.tm
</note>
  <anchor x="1405" y="1239" name="top"/>
  <outline>
    <contour>
      <point x="2987" y="1742" type="curve" smooth="yes"/>
      <point x="2693" y="1742"/>
      <point x="2531" y="1579"/>
      <point x="2531" y="1323" type="curve" smooth="yes"/>
      <point x="2531" y="1315" type="line" smooth="yes"/>
      <point x="2531" y="1238"/>
      <point x="2549" y="1150"/>
      <point x="2579" y="1101" type="curve"/>
      <point x="2756" y="1101" type="line"/>
      <point x="2728" y="1145"/>
      <point x="2712" y="1217"/>
      <point x="2712" y="1290" type="curve" smooth="yes"/>
      <point x="2712" y="1294" type="line" smooth="yes"/>
      <point x="2712" y="1484"/>
      <point x="2809" y="1582"/>
      <point x="2985" y="1582" type="curve" smooth="yes"/>
      <point x="3179" y="1582"/>
      <point x="3259" y="1478"/>
      <point x="3259" y="1235" type="curve" smooth="yes"/>
      <point x="3259" y="0" type="line"/>
      <point x="3445" y="0" type="line"/>
      <point x="3445" y="1229" type="line" smooth="yes"/>
      <point x="3445" y="1580"/>
      <point x="3307" y="1742"/>
    </contour>
    <component base="Ha_Simple.tm"/>
  </outline>
</glyph>
<glyph name="HaMatraI_Simple_Fly.tm" format="2">
  <advance width="3101"/>
  <note>
HaMatraI.tm
</note>
  <anchor x="2267" y="1239" name="top"/>
  <outline>
    <contour>
      <point x="1370" y="153" type="line"/>
      <point x="1370" y="0" type="line"/>
      <point x="1690" y="0" type="line"/>
      <point x="1690" y="153" type="line"/>
    </contour>
    <contour>
      <point x="1714" y="-212" type="line"/>
      <point x="67" y="-212" type="line"/>
      <point x="92" y="-368" type="line"/>
      <point x="1714" y="-368" type="line"/>
    </contour>
    <component base="Va_NonExporting" xOffset="12.991"/>
    <component base="RraMatraI_Simple_Fly.tm" xOffset="1440"/>
  </outline>
</glyph>
<glyph name="HaMatraIi.tm" format="2">
  <advance width="3101"/>
  <note>
HaMatraIi.tm
</note>
  <anchor x="1405" y="1239" name="top"/>
  <outline>
    <contour>
      <point x="2937" y="1865" type="curve" smooth="yes"/>
      <point x="2620" y="1865"/>
      <point x="2465" y="1715"/>
      <point x="2465" y="1453" type="curve" smooth="yes"/>
      <point x="2465" y="1441" type="line" smooth="yes"/>
      <point x="2465" y="1316"/>
      <point x="2512" y="1198"/>
      <point x="2564" y="1139" type="curve"/>
      <point x="2741" y="1139" type="line"/>
      <point x="2682" y="1206"/>
      <point x="2638" y="1315"/>
      <point x="2638" y="1430" type="curve" smooth="yes"/>
      <point x="2638" y="1441" type="line" smooth="yes"/>
      <point x="2638" y="1615"/>
      <point x="2725" y="1711"/>
      <point x="2887" y="1725" type="curve"/>
      <point x="2887" y="1719" type="line"/>
      <point x="2915" y="1724"/>
      <point x="2944" y="1727"/>
      <point x="2975" y="1727" type="curve" smooth="yes"/>
      <point x="3115" y="1727"/>
      <point x="3172" y="1665"/>
      <point x="3172" y="1550" type="curve" smooth="yes"/>
      <point x="3172" y="1542" type="line" smooth="yes"/>
      <point x="3172" y="1451"/>
      <point x="3133" y="1404"/>
      <point x="3051" y="1404" type="curve" smooth="yes"/>
      <point x="2960" y="1404"/>
      <point x="2921" y="1458"/>
      <point x="2921" y="1552" type="curve" smooth="yes"/>
      <point x="2921" y="1570" type="line" smooth="yes"/>
      <point x="2921" y="1637"/>
      <point x="2933" y="1690"/>
      <point x="2961" y="1731" type="curve"/>
      <point x="2887" y="1732" type="line"/>
      <point x="2887" y="1720" type="line"/>
      <point x="2816" y="1691"/>
      <point x="2772" y="1626"/>
      <point x="2772" y="1532" type="curve" smooth="yes"/>
      <point x="2772" y="1522" type="line" smooth="yes"/>
      <point x="2772" y="1370"/>
      <point x="2859" y="1274"/>
      <point x="3052" y="1274" type="curve" smooth="yes"/>
      <point x="3239" y="1274"/>
      <point x="3330" y="1370"/>
      <point x="3330" y="1545" type="curve" smooth="yes"/>
      <point x="3330" y="1551" type="line" smooth="yes"/>
      <point x="3330" y="1746"/>
      <point x="3208" y="1865"/>
    </contour>
    <component base="Ha.tm"/>
  </outline>
</glyph>
<glyph name="HaMatraIi_Simple_SimpleIi.tm" format="2">
  <advance width="3106"/>
  <note>
HaMatraIi.tm
</note>
  <anchor x="2267" y="1239" name="top"/>
  <outline>
    <contour>
      <point x="1370" y="153" type="line"/>
      <point x="1370" y="0" type="line"/>
      <point x="1693" y="0" type="line"/>
      <point x="1693" y="153" type="line"/>
    </contour>
    <contour>
      <point x="1687" y="-212" type="line"/>
      <point x="67" y="-212" type="line"/>
      <point x="92" y="-368" type="line"/>
      <point x="1687" y="-368" type="line"/>
    </contour>
    <component base="Va_NonExporting" xOffset="12.991"/>
    <component base="RraMatraIi_Simple_SimpleIi.tm" xOffset="1440"/>
  </outline>
</glyph>
<glyph name="Ha_Simple.tm" format="2">
  <advance width="3101"/>
  <note>
Ha.tm
</note>
  <anchor x="1405" y="1239" name="top"/>
  <outline>
    <contour>
      <point x="1370" y="154" type="line"/>
      <point x="1370" y="0" type="line"/>
      <point x="1690" y="0" type="line"/>
      <point x="1690" y="154" type="line"/>
    </contour>
    <contour>
      <point x="1690" y="-212" type="line"/>
      <point x="67" y="-212" type="line"/>
      <point x="92" y="-368" type="line"/>
      <point x="1690" y="-368" type="line"/>
    </contour>
    <component base="Va_NonExporting" xOffset="12.991"/>
    <component base="Rra_Simple.tm" xOffset="1440"/>
  </outline>
</glyph>
<glyph name="JaMatraI.tm" format="2">
  <advance width="2443"/>
  <note>
JaMatraI.tm
</note>
  <anchor x="1095" y="1239" name="top"/>
  <outline>
    <contour>
      <point x="1817" y="1742" type="curve" smooth="yes"/>
      <point x="1516" y="1742"/>
      <point x="1357" y="1580"/>
      <point x="1357" y="1331" type="curve" smooth="yes"/>
      <point x="1357" y="1327" type="line" smooth="yes"/>
      <point x="1357" y="1256"/>
      <point x="1373" y="1185"/>
      <point x="1397" y="1143" type="curve"/>
      <point x="1574" y="1143" type="line"/>
      <point x="1551" y="1182"/>
      <point x="1539" y="1237"/>
      <point x="1539" y="1304" type="curve" smooth="yes"/>
      <point x="1539" y="1306" type="line" smooth="yes"/>
      <point x="1539" y="1485"/>
      <point x="1633" y="1582"/>
      <point x="1815" y="1582" type="curve" smooth="yes"/>
      <point x="2012" y="1582"/>
      <point x="2089" y="1477"/>
      <point x="2089" y="1246" type="curve" smooth="yes"/>
      <point x="2089" y="0" type="line"/>
      <point x="2275" y="0" type="line"/>
      <point x="2275" y="1241" type="line" smooth="yes"/>
      <point x="2275" y="1580"/>
      <point x="2137" y="1742"/>
    </contour>
    <component base="Ja.tm"/>
  </outline>
</glyph>
<glyph name="JaMatraI_Fly.tm" format="2">
  <advance width="1928"/>
  <note>
JaMatraI.tm
</note>
  <anchor x="1095" y="1239" name="top"/>
  <outline>
    <contour>
      <point x="1893" y="1577" type="line"/>
      <point x="1556" y="1577" type="line" smooth="yes"/>
      <point x="1366" y="1577"/>
      <point x="1285" y="1512"/>
      <point x="1285" y="1380" type="curve" smooth="yes"/>
      <point x="1285" y="1306"/>
      <point x="1315" y="1237"/>
      <point x="1367" y="1142" type="curve"/>
      <point x="1547" y="1142" type="line"/>
      <point x="1509" y="1203"/>
      <point x="1476" y="1265"/>
      <point x="1476" y="1320" type="curve" smooth="yes"/>
      <point x="1476" y="1390"/>
      <point x="1513" y="1420"/>
      <point x="1615" y="1420" type="curve" smooth="yes"/>
      <point x="1918" y="1420" type="line"/>
    </contour>
    <component base="Ja.tm"/>
  </outline>
</glyph>
<glyph name="JaMatraI_Fused_Fly.tm" format="2">
  <advance width="1923"/>
  <note>
JaMatraI.tm
</note>
  <anchor x="1093" y="1239" name="top"/>
  <outline>
    <contour>
      <point x="1888" y="1577" type="line"/>
      <point x="1551" y="1577" type="line" smooth="yes"/>
      <point x="1361" y="1577"/>
      <point x="1280" y="1512"/>
      <point x="1280" y="1380" type="curve" smooth="yes"/>
      <point x="1280" y="1306"/>
      <point x="1310" y="1237"/>
      <point x="1362" y="1142" type="curve"/>
      <point x="1542" y="1142" type="line"/>
      <point x="1504" y="1203"/>
      <point x="1471" y="1265"/>
      <point x="1471" y="1320" type="curve" smooth="yes"/>
      <point x="1471" y="1390"/>
      <point x="1508" y="1420"/>
      <point x="1610" y="1420" type="curve" smooth="yes"/>
      <point x="1913" y="1420" type="line"/>
    </contour>
    <component base="Ja_dummy.tm"/>
  </outline>
</glyph>
<glyph name="JaMatraIi.tm" format="2">
  <advance width="1928"/>
  <note>
JaMatraIi.tm
</note>
  <anchor x="1095" y="1239" name="top"/>
  <outline>
    <contour>
      <point x="1755" y="1865" type="curve" smooth="yes"/>
      <point x="1438" y="1865"/>
      <point x="1283" y="1715"/>
      <point x="1283" y="1453" type="curve" smooth="yes"/>
      <point x="1283" y="1441" type="line" smooth="yes"/>
      <point x="1283" y="1320"/>
      <point x="1327" y="1206"/>
      <point x="1377" y="1148" type="curve"/>
      <point x="1555" y="1148" type="line"/>
      <point x="1498" y="1213"/>
      <point x="1456" y="1319"/>
      <point x="1456" y="1430" type="curve" smooth="yes"/>
      <point x="1456" y="1441" type="line" smooth="yes"/>
      <point x="1456" y="1615"/>
      <point x="1542" y="1711"/>
      <point x="1705" y="1725" type="curve"/>
      <point x="1705" y="1719" type="line"/>
      <point x="1733" y="1724"/>
      <point x="1762" y="1727"/>
      <point x="1793" y="1727" type="curve" smooth="yes"/>
      <point x="1933" y="1727"/>
      <point x="1990" y="1665"/>
      <point x="1990" y="1550" type="curve" smooth="yes"/>
      <point x="1990" y="1542" type="line" smooth="yes"/>
      <point x="1990" y="1451"/>
      <point x="1951" y="1404"/>
      <point x="1869" y="1404" type="curve" smooth="yes"/>
      <point x="1778" y="1404"/>
      <point x="1739" y="1458"/>
      <point x="1739" y="1552" type="curve" smooth="yes"/>
      <point x="1739" y="1570" type="line" smooth="yes"/>
      <point x="1739" y="1637"/>
      <point x="1751" y="1690"/>
      <point x="1779" y="1731" type="curve"/>
      <point x="1705" y="1732" type="line"/>
      <point x="1705" y="1720" type="line"/>
      <point x="1634" y="1691"/>
      <point x="1590" y="1626"/>
      <point x="1590" y="1532" type="curve" smooth="yes"/>
      <point x="1590" y="1522" type="line" smooth="yes"/>
      <point x="1590" y="1370"/>
      <point x="1677" y="1274"/>
      <point x="1870" y="1274" type="curve" smooth="yes"/>
      <point x="2057" y="1274"/>
      <point x="2148" y="1370"/>
      <point x="2148" y="1545" type="curve" smooth="yes"/>
      <point x="2148" y="1551" type="line" smooth="yes"/>
      <point x="2148" y="1746"/>
      <point x="2026" y="1865"/>
    </contour>
    <component base="Ja.tm"/>
  </outline>
</glyph>
<glyph name="JaMatraIi_Fused.tm" format="2">
  <advance width="1923"/>
  <note>
JaMatraIi.tm
</note>
  <anchor x="1093" y="1239" name="top"/>
  <outline>
    <contour>
      <point x="1750" y="1865" type="curve" smooth="yes"/>
      <point x="1433" y="1865"/>
      <point x="1278" y="1715"/>
      <point x="1278" y="1453" type="curve" smooth="yes"/>
      <point x="1278" y="1441" type="line" smooth="yes"/>
      <point x="1278" y="1320"/>
      <point x="1322" y="1206"/>
      <point x="1372" y="1148" type="curve"/>
      <point x="1550" y="1148" type="line"/>
      <point x="1493" y="1213"/>
      <point x="1451" y="1319"/>
      <point x="1451" y="1430" type="curve" smooth="yes"/>
      <point x="1451" y="1441" type="line" smooth="yes"/>
      <point x="1451" y="1615"/>
      <point x="1537" y="1711"/>
      <point x="1700" y="1725" type="curve"/>
      <point x="1700" y="1719" type="line"/>
      <point x="1728" y="1724"/>
      <point x="1757" y="1727"/>
      <point x="1788" y="1727" type="curve" smooth="yes"/>
      <point x="1928" y="1727"/>
      <point x="1985" y="1665"/>
      <point x="1985" y="1550" type="curve" smooth="yes"/>
      <point x="1985" y="1542" type="line" smooth="yes"/>
      <point x="1985" y="1451"/>
      <point x="1946" y="1404"/>
      <point x="1864" y="1404" type="curve" smooth="yes"/>
      <point x="1773" y="1404"/>
      <point x="1734" y="1458"/>
      <point x="1734" y="1552" type="curve" smooth="yes"/>
      <point x="1734" y="1570" type="line" smooth="yes"/>
      <point x="1734" y="1637"/>
      <point x="1746" y="1690"/>
      <point x="1774" y="1731" type="curve"/>
      <point x="1700" y="1732" type="line"/>
      <point x="1700" y="1720" type="line"/>
      <point x="1629" y="1691"/>
      <point x="1585" y="1626"/>
      <point x="1585" y="1532" type="curve" smooth="yes"/>
      <point x="1585" y="1522" type="line" smooth="yes"/>
      <point x="1585" y="1370"/>
      <point x="1672" y="1274"/>
      <point x="1865" y="1274" type="curve" smooth="yes"/>
      <point x="2052" y="1274"/>
      <point x="2143" y="1370"/>
      <point x="2143" y="1545" type="curve" smooth="yes"/>
      <point x="2143" y="1551" type="line" smooth="yes"/>
      <point x="2143" y="1746"/>
      <point x="2021" y="1865"/>
    </contour>
    <component base="Ja_dummy.tm"/>
  </outline>
</glyph>
<glyph name="JaMatraIi_Fused_SimpleIi.tm" format="2">
  <advance width="1923"/>
  <note>
JaMatraIi.tm
</note>
  <anchor x="1093" y="1239" name="top"/>
  <outline>
    <contour>
      <point x="1640" y="1838" type="curve" smooth="yes"/>
      <point x="1403" y="1838"/>
      <point x="1295" y="1713"/>
      <point x="1295" y="1488" type="curve" smooth="yes"/>
      <point x="1295" y="1423" type="line" smooth="yes"/>
      <point x="1295" y="1298"/>
      <point x="1323" y="1208"/>
      <point x="1379" y="1155" type="curve"/>
      <point x="1556" y="1155" type="line"/>
      <point x="1494" y="1213"/>
      <point x="1468" y="1297"/>
      <point x="1468" y="1406" type="curve" smooth="yes"/>
      <point x="1468" y="1451" type="line"/>
      <point x="1468" y="1512" type="line" smooth="yes"/>
      <point x="1468" y="1638"/>
      <point x="1527" y="1697"/>
      <point x="1636" y="1697" type="curve" smooth="yes"/>
      <point x="1736" y="1697"/>
      <point x="1787" y="1649"/>
      <point x="1787" y="1559" type="curve" smooth="yes"/>
      <point x="1787" y="1539" type="line" smooth="yes"/>
      <point x="1787" y="1447"/>
      <point x="1743" y="1399"/>
      <point x="1641" y="1399" type="curve" smooth="yes"/>
      <point x="1552" y="1399"/>
      <point x="1493" y="1441"/>
      <point x="1464" y="1496" type="curve"/>
      <point x="1460" y="1496" type="line"/>
      <point x="1462" y="1427" type="line"/>
      <point x="1473" y="1427" type="line"/>
      <point x="1518" y="1306" type="line"/>
      <point x="1545" y="1283"/>
      <point x="1608" y="1266"/>
      <point x="1686" y="1266" type="curve" smooth="yes"/>
      <point x="1874" y="1266"/>
      <point x="1957" y="1362"/>
      <point x="1957" y="1536" type="curve" smooth="yes"/>
      <point x="1957" y="1553" type="line" smooth="yes"/>
      <point x="1957" y="1733"/>
      <point x="1857" y="1838"/>
    </contour>
    <component base="Ja_dummy.tm"/>
  </outline>
</glyph>
<glyph name="KaMatraI.tm" format="2">
  <advance width="1654"/>
  <note>
KaMatraI.tm
</note>
  <outline>
    <contour>
      <point x="939" y="546" type="line"/>
      <point x="1140" y="546" type="line" smooth="yes"/>
      <point x="1278" y="546"/>
      <point x="1335" y="497"/>
      <point x="1335" y="367" type="curve" smooth="yes"/>
      <point x="1335" y="324" type="line" smooth="yes"/>
      <point x="1335" y="203"/>
      <point x="1286" y="130"/>
      <point x="1144" y="130" type="curve" smooth="yes"/>
      <point x="1051" y="130"/>
      <point x="985" y="153"/>
      <point x="927" y="188" type="curve"/>
      <point x="924" y="175" type="line"/>
      <point x="956" y="17" type="line"/>
      <point x="1008" y="-5"/>
      <point x="1091" y="-24"/>
      <point x="1186" y="-24" type="curve" smooth="yes"/>
      <point x="1423" y="-24"/>
      <point x="1520" y="99"/>
      <point x="1520" y="318" type="curve" smooth="yes"/>
      <point x="1520" y="375" type="line" smooth="yes"/>
      <point x="1520" y="598"/>
      <point x="1417" y="694"/>
      <point x="1163" y="694" type="curve" smooth="yes"/>
      <point x="939" y="694" type="line"/>
    </contour>
    <contour>
      <point x="1162" y="1742" type="curve" smooth="yes"/>
      <point x="899" y="1742"/>
      <point x="763" y="1595"/>
      <point x="763" y="1360" type="curve"/>
      <point x="763" y="1354" type="line" smooth="yes"/>
      <point x="763" y="1273"/>
      <point x="785" y="1186"/>
      <point x="814" y="1139" type="curve"/>
      <point x="989" y="1139" type="line"/>
      <point x="962" y="1185"/>
      <point x="945" y="1250"/>
      <point x="945" y="1331" type="curve" smooth="yes"/>
      <point x="945" y="1336" type="line"/>
      <point x="945" y="1502"/>
      <point x="1014" y="1585"/>
      <point x="1159" y="1585" type="curve" smooth="yes"/>
      <point x="1315" y="1585"/>
      <point x="1373" y="1497"/>
      <point x="1373" y="1298" type="curve" smooth="yes"/>
      <point x="1373" y="761" type="line"/>
      <point x="1554" y="761" type="line"/>
      <point x="1554" y="1292" type="line" smooth="yes"/>
      <point x="1554" y="1598"/>
      <point x="1439" y="1742"/>
    </contour>
    <component base="KaComponent_Nonexporting" xOffset="74"/>
    <component base="KaBeak_Nonexporting" xOffset="965"/>
  </outline>
</glyph>
<glyph name="KssaMatraIi.tm" format="2">
  <advance width="3241"/>
  <note>
KshaMatraIi.tm
</note>
  <anchor x="1852" y="1239" name="top"/>
  <outline>
    <contour>
      <point x="2967" y="1865" type="curve" smooth="yes"/>
      <point x="2651" y="1865"/>
      <point x="2496" y="1715"/>
      <point x="2496" y="1453" type="curve" smooth="yes"/>
      <point x="2496" y="1441" type="line" smooth="yes"/>
      <point x="2496" y="1316"/>
      <point x="2543" y="1198"/>
      <point x="2595" y="1139" type="curve"/>
      <point x="2772" y="1139" type="line"/>
      <point x="2713" y="1206"/>
      <point x="2669" y="1315"/>
      <point x="2669" y="1430" type="curve" smooth="yes"/>
      <point x="2669" y="1441" type="line" smooth="yes"/>
      <point x="2669" y="1615"/>
      <point x="2755" y="1711"/>
      <point x="2918" y="1725" type="curve"/>
      <point x="2918" y="1719" type="line"/>
      <point x="2945" y="1724"/>
      <point x="2975" y="1727"/>
      <point x="3006" y="1727" type="curve" smooth="yes"/>
      <point x="3146" y="1727"/>
      <point x="3203" y="1665"/>
      <point x="3203" y="1550" type="curve" smooth="yes"/>
      <point x="3203" y="1542" type="line" smooth="yes"/>
      <point x="3203" y="1451"/>
      <point x="3164" y="1404"/>
      <point x="3081" y="1404" type="curve" smooth="yes"/>
      <point x="2991" y="1404"/>
      <point x="2952" y="1458"/>
      <point x="2952" y="1552" type="curve" smooth="yes"/>
      <point x="2952" y="1570" type="line" smooth="yes"/>
      <point x="2952" y="1637"/>
      <point x="2964" y="1690"/>
      <point x="2992" y="1731" type="curve"/>
      <point x="2918" y="1732" type="line"/>
      <point x="2918" y="1720" type="line"/>
      <point x="2846" y="1691"/>
      <point x="2803" y="1626"/>
      <point x="2803" y="1532" type="curve" smooth="yes"/>
      <point x="2803" y="1522" type="line" smooth="yes"/>
      <point x="2803" y="1370"/>
      <point x="2890" y="1274"/>
      <point x="3082" y="1274" type="curve" smooth="yes"/>
      <point x="3270" y="1274"/>
      <point x="3361" y="1370"/>
      <point x="3361" y="1545" type="curve" smooth="yes"/>
      <point x="3361" y="1551" type="line" smooth="yes"/>
      <point x="3361" y="1746"/>
      <point x="3239" y="1865"/>
    </contour>
    <component base="Kssa.tm"/>
  </outline>
</glyph>
<glyph name="KssaMatraUu.tm" format="2">
  <advance width="4536"/>
  <note>
KshaMatraUu.tm
</note>
  <outline>
    <contour>
      <point x="911" y="544" type="line"/>
      <point x="1069" y="544" type="line" smooth="yes"/>
      <point x="1232" y="544"/>
      <point x="1285" y="485"/>
      <point x="1285" y="314" type="curve" smooth="yes"/>
      <point x="1285" y="0" type="line"/>
      <point x="1469" y="0" type="line"/>
      <point x="1469" y="379" type="line" smooth="yes"/>
      <point x="1469" y="551"/>
      <point x="1546" y="632"/>
      <point x="1665" y="632" type="curve" smooth="yes"/>
      <point x="1787" y="632"/>
      <point x="1838" y="553"/>
      <point x="1838" y="412" type="curve" smooth="yes"/>
      <point x="1838" y="342" type="line" smooth="yes"/>
      <point x="1838" y="188"/>
      <point x="1802" y="100"/>
      <point x="1733" y="13" type="curve"/>
      <point x="1733" y="0" type="line"/>
      <point x="2345" y="0" type="line"/>
      <point x="2345" y="153" type="line"/>
      <point x="1893" y="153" type="line"/>
      <point x="1930" y="103" type="line"/>
      <point x="1982" y="173"/>
      <point x="2018" y="255"/>
      <point x="2018" y="401" type="curve" smooth="yes"/>
      <point x="2018" y="464" type="line" smooth="yes"/>
      <point x="2018" y="674"/>
      <point x="1923" y="789"/>
      <point x="1708" y="789" type="curve" smooth="yes"/>
      <point x="1498" y="789"/>
      <point x="1383" y="666"/>
      <point x="1383" y="466" type="curve" smooth="yes"/>
      <point x="1383" y="455" type="line"/>
      <point x="1375" y="455" type="line"/>
      <point x="1359" y="621"/>
      <point x="1285" y="694"/>
      <point x="1084" y="694" type="curve" smooth="yes"/>
      <point x="911" y="694" type="line"/>
    </contour>
    <contour>
      <point x="1950" y="153" type="line"/>
      <point x="1950" y="0" type="line"/>
      <point x="3205" y="0" type="line"/>
      <point x="3227" y="153" type="line"/>
      <point x="2701" y="153" type="line"/>
      <point x="2653" y="128" type="line"/>
      <point x="2601" y="153" type="line"/>
    </contour>
    <contour>
      <point x="2653" y="1173" type="curve" smooth="yes"/>
      <point x="2376" y="1173"/>
      <point x="2246" y="1007"/>
      <point x="2246" y="734" type="curve" smooth="yes"/>
      <point x="2246" y="566" type="line" smooth="yes"/>
      <point x="2246" y="314"/>
      <point x="2337" y="147"/>
      <point x="2597" y="60" type="curve"/>
      <point x="2679" y="121" type="line"/>
      <point x="2492" y="191"/>
      <point x="2435" y="327"/>
      <point x="2435" y="527" type="curve" smooth="yes"/>
      <point x="2435" y="721" type="line" smooth="yes"/>
      <point x="2435" y="906"/>
      <point x="2500" y="1012"/>
      <point x="2653" y="1012" type="curve" smooth="yes"/>
      <point x="2806" y="1012"/>
      <point x="2871" y="906"/>
      <point x="2871" y="721" type="curve" smooth="yes"/>
      <point x="2871" y="527" type="line" smooth="yes"/>
      <point x="2871" y="327"/>
      <point x="2813" y="191"/>
      <point x="2627" y="121" type="curve"/>
      <point x="2708" y="60" type="line"/>
      <point x="2968" y="147"/>
      <point x="3060" y="314"/>
      <point x="3060" y="566" type="curve" smooth="yes"/>
      <point x="3060" y="730" type="line" smooth="yes"/>
      <point x="3060" y="879"/>
      <point x="3021" y="989"/>
      <point x="2925" y="1050" type="curve"/>
      <point x="2927" y="1081" type="line"/>
      <point x="2868" y="1142"/>
      <point x="2779" y="1173"/>
    </contour>
    <contour>
      <point x="3122" y="1147" type="line"/>
      <point x="2788" y="1147" type="line"/>
      <point x="2814" y="994" type="line"/>
      <point x="3122" y="994" type="line"/>
    </contour>
    <component base="MatraUuDflt.tm" xOffset="2957"/>
    <component base="KaComponent_Nonexporting" xOffset="74"/>
    <component base="KaBeak_Nonexporting" xOffset="1045"/>
    <component base="Ssa_Below_NonExporting" xOffset="2338"/>
  </outline>
</glyph>
<glyph name="LaMatraI.tm" format="2">
  <advance width="2501"/>
  <note>
LaMatraI.tm
</note>
  <outline>
    <contour>
      <point x="709" y="1174" type="curve" smooth="yes"/>
      <point x="323" y="1174"/>
      <point x="129" y="956"/>
      <point x="129" y="564" type="curve" smooth="yes"/>
      <point x="129" y="395" type="line" smooth="yes"/>
      <point x="129" y="140"/>
      <point x="243" y="-23"/>
      <point x="502" y="-23" type="curve" smooth="yes"/>
      <point x="744" y="-23"/>
      <point x="846" y="117"/>
      <point x="846" y="334" type="curve" smooth="yes"/>
      <point x="846" y="423" type="line" smooth="yes"/>
      <point x="846" y="635"/>
      <point x="757" y="750"/>
      <point x="576" y="750" type="curve" smooth="yes"/>
      <point x="428" y="750"/>
      <point x="336" y="664"/>
      <point x="312" y="559" type="curve"/>
      <point x="297" y="559" type="line"/>
      <point x="302" y="434" type="line"/>
      <point x="323" y="520"/>
      <point x="398" y="592"/>
      <point x="502" y="592" type="curve" smooth="yes"/>
      <point x="616" y="592"/>
      <point x="666" y="527"/>
      <point x="666" y="405" type="curve" smooth="yes"/>
      <point x="666" y="325" type="line" smooth="yes"/>
      <point x="666" y="199"/>
      <point x="616" y="125"/>
      <point x="499" y="125" type="curve" smooth="yes"/>
      <point x="368" y="125"/>
      <point x="311" y="211"/>
      <point x="311" y="356" type="curve"/>
      <point x="311" y="559" type="line"/>
      <point x="305" y="559" type="line"/>
      <point x="305" y="566"/>
      <point x="305" y="570"/>
      <point x="305" y="577" type="curve" smooth="yes"/>
      <point x="307" y="864"/>
      <point x="436" y="1014"/>
      <point x="706" y="1014" type="curve" smooth="yes"/>
      <point x="965" y="1014"/>
      <point x="1067" y="870"/>
      <point x="1067" y="590" type="curve" smooth="yes"/>
      <point x="1067" y="421" type="line" smooth="yes"/>
      <point x="1067" y="131"/>
      <point x="1184" y="-23"/>
      <point x="1458" y="-23" type="curve" smooth="yes"/>
      <point x="1733" y="-23"/>
      <point x="1844" y="140"/>
      <point x="1844" y="444" type="curve" smooth="yes"/>
      <point x="1844" y="685" type="line" smooth="yes"/>
      <point x="1844" y="997"/>
      <point x="1742" y="1163"/>
      <point x="1449" y="1163" type="curve" smooth="yes"/>
      <point x="1415" y="1163"/>
      <point x="1383" y="1158"/>
      <point x="1357" y="1146" type="curve"/>
      <point x="1493" y="1112" type="line"/>
      <point x="1487" y="1145"/>
      <point x="1484" y="1180"/>
      <point x="1484" y="1223" type="curve" smooth="yes"/>
      <point x="1484" y="1457"/>
      <point x="1596" y="1582"/>
      <point x="1817" y="1582" type="curve" smooth="yes"/>
      <point x="2054" y="1582"/>
      <point x="2147" y="1452"/>
      <point x="2147" y="1176" type="curve" smooth="yes"/>
      <point x="2147" y="0" type="line"/>
      <point x="2333" y="0" type="line"/>
      <point x="2333" y="1171" type="line" smooth="yes"/>
      <point x="2333" y="1552"/>
      <point x="2175" y="1742"/>
      <point x="1820" y="1742" type="curve" smooth="yes"/>
      <point x="1480" y="1742"/>
      <point x="1304" y="1551"/>
      <point x="1304" y="1211" type="curve" smooth="yes"/>
      <point x="1304" y="1141"/>
      <point x="1310" y="1068"/>
      <point x="1320" y="1006" type="curve"/>
      <point x="1343" y="1011"/>
      <point x="1369" y="1013"/>
      <point x="1398" y="1013" type="curve" smooth="yes"/>
      <point x="1597" y="1013"/>
      <point x="1655" y="895"/>
      <point x="1655" y="680" type="curve" smooth="yes"/>
      <point x="1655" y="439" type="line" smooth="yes"/>
      <point x="1655" y="241"/>
      <point x="1601" y="136"/>
      <point x="1458" y="136" type="curve" smooth="yes"/>
      <point x="1313" y="136"/>
      <point x="1254" y="230"/>
      <point x="1254" y="425" type="curve" smooth="yes"/>
      <point x="1254" y="594" type="line" smooth="yes"/>
      <point x="1254" y="970"/>
      <point x="1102" y="1174"/>
    </contour>
  </outline>
</glyph>
<glyph name="LlaMatraI.tm" format="2">
  <advance width="2625"/>
  <note>
LlaMatraI.tm
</note>
  <outline>
    <contour>
      <point x="1686" y="1101" type="line"/>
      <point x="1686" y="0" type="line"/>
      <point x="1872" y="0" type="line"/>
      <point x="1872" y="1101" type="line"/>
    </contour>
    <contour>
      <point x="698" y="1174" type="curve" smooth="yes"/>
      <point x="320" y="1174"/>
      <point x="129" y="957"/>
      <point x="129" y="572" type="curve" smooth="yes"/>
      <point x="129" y="395" type="line" smooth="yes"/>
      <point x="129" y="140"/>
      <point x="243" y="-23"/>
      <point x="502" y="-23" type="curve" smooth="yes"/>
      <point x="744" y="-23"/>
      <point x="846" y="117"/>
      <point x="846" y="334" type="curve" smooth="yes"/>
      <point x="846" y="423" type="line" smooth="yes"/>
      <point x="846" y="635"/>
      <point x="757" y="750"/>
      <point x="575" y="750" type="curve" smooth="yes"/>
      <point x="427" y="750"/>
      <point x="336" y="664"/>
      <point x="312" y="559" type="curve"/>
      <point x="297" y="559" type="line"/>
      <point x="302" y="434" type="line"/>
      <point x="323" y="520"/>
      <point x="398" y="592"/>
      <point x="501" y="592" type="curve" smooth="yes"/>
      <point x="616" y="592"/>
      <point x="666" y="527"/>
      <point x="666" y="405" type="curve" smooth="yes"/>
      <point x="666" y="325" type="line" smooth="yes"/>
      <point x="666" y="199"/>
      <point x="615" y="125"/>
      <point x="499" y="125" type="curve" smooth="yes"/>
      <point x="368" y="125"/>
      <point x="311" y="211"/>
      <point x="311" y="356" type="curve"/>
      <point x="311" y="559" type="line"/>
      <point x="305" y="559" type="line"/>
      <point x="305" y="569"/>
      <point x="305" y="575"/>
      <point x="305" y="585" type="curve" smooth="yes"/>
      <point x="307" y="866"/>
      <point x="438" y="1014"/>
      <point x="713" y="1014" type="curve" smooth="yes"/>
      <point x="995" y="1014"/>
      <point x="1102" y="856"/>
      <point x="1102" y="547" type="curve" smooth="yes"/>
      <point x="1102" y="0" type="line"/>
      <point x="1288" y="0" type="line"/>
      <point x="1288" y="994" type="line"/>
      <point x="1844" y="994" type="line"/>
      <point x="1844" y="1147" type="line"/>
      <point x="1161" y="1147" type="line"/>
      <point x="1163" y="843" type="line"/>
      <point x="1156" y="843" type="line"/>
      <point x="1120" y="1030"/>
      <point x="993" y="1174"/>
    </contour>
    <component base="MatraIDflt.tm" xOffset="1646"/>
    <component base="RaBeak_Nonexporting" xOffset="1587"/>
  </outline>
</glyph>
<glyph name="LlaMatraUu.tm" format="2">
  <advance width="3428"/>
  <note>
LlaMatraUu.tm
</note>
  <outline>
    <contour>
      <point x="1580" y="1174" type="curve" smooth="yes"/>
      <point x="1203" y="1174"/>
      <point x="1013" y="957"/>
      <point x="1013" y="572" type="curve" smooth="yes"/>
      <point x="1013" y="395" type="line" smooth="yes"/>
      <point x="1013" y="140"/>
      <point x="1127" y="-23"/>
      <point x="1386" y="-23" type="curve" smooth="yes"/>
      <point x="1628" y="-23"/>
      <point x="1730" y="117"/>
      <point x="1730" y="334" type="curve" smooth="yes"/>
      <point x="1730" y="423" type="line" smooth="yes"/>
      <point x="1730" y="635"/>
      <point x="1641" y="750"/>
      <point x="1459" y="750" type="curve" smooth="yes"/>
      <point x="1311" y="750"/>
      <point x="1220" y="664"/>
      <point x="1196" y="559" type="curve"/>
      <point x="1181" y="559" type="line"/>
      <point x="1185" y="434" type="line"/>
      <point x="1207" y="520"/>
      <point x="1282" y="592"/>
      <point x="1385" y="592" type="curve" smooth="yes"/>
      <point x="1500" y="592"/>
      <point x="1550" y="527"/>
      <point x="1550" y="405" type="curve" smooth="yes"/>
      <point x="1550" y="325" type="line" smooth="yes"/>
      <point x="1550" y="199"/>
      <point x="1499" y="125"/>
      <point x="1382" y="125" type="curve" smooth="yes"/>
      <point x="1252" y="125"/>
      <point x="1195" y="211"/>
      <point x="1195" y="356" type="curve"/>
      <point x="1195" y="559" type="line"/>
      <point x="1189" y="559" type="line"/>
      <point x="1189" y="569"/>
      <point x="1189" y="575"/>
      <point x="1189" y="585" type="curve" smooth="yes"/>
      <point x="1191" y="866"/>
      <point x="1321" y="1014"/>
      <point x="1595" y="1014" type="curve" smooth="yes"/>
      <point x="1874" y="1014"/>
      <point x="1980" y="856"/>
      <point x="1980" y="547" type="curve" smooth="yes"/>
      <point x="1980" y="0" type="line"/>
      <point x="2165" y="0" type="line"/>
      <point x="2165" y="994" type="line"/>
      <point x="2786" y="994" type="line"/>
      <point x="2786" y="1147" type="line"/>
      <point x="2039" y="1147" type="line"/>
      <point x="2041" y="843" type="line"/>
      <point x="2034" y="843" type="line"/>
      <point x="1998" y="1030"/>
      <point x="1872" y="1174"/>
    </contour>
    <contour>
      <point x="2556" y="1101" type="line"/>
      <point x="2556" y="0" type="line"/>
      <point x="2742" y="0" type="line"/>
      <point x="2742" y="1101" type="line"/>
    </contour>
    <contour>
      <point x="3020" y="755" type="curve" smooth="yes"/>
      <point x="2867" y="755"/>
      <point x="2776" y="669"/>
      <point x="2750" y="552" type="curve"/>
      <point x="2719" y="552" type="line"/>
      <point x="2719" y="399" type="line"/>
      <point x="2733" y="399" type="line"/>
      <point x="2760" y="517"/>
      <point x="2836" y="588"/>
      <point x="2947" y="588" type="curve" smooth="yes"/>
      <point x="3083" y="588"/>
      <point x="3133" y="497"/>
      <point x="3133" y="319" type="curve" smooth="yes"/>
      <point x="3133" y="312" type="line" smooth="yes"/>
      <point x="3133" y="-192"/>
      <point x="2780" y="-444"/>
      <point x="1866" y="-444" type="curve" smooth="yes"/>
      <point x="1778" y="-444" type="line" smooth="yes"/>
      <point x="748" y="-444"/>
      <point x="323" y="-150"/>
      <point x="322" y="533" type="curve" smooth="yes"/>
      <point x="322" y="534" type="line"/>
      <point x="322" y="703" type="line"/>
      <point x="322" y="917"/>
      <point x="385" y="1020"/>
      <point x="514" y="1020" type="curve" smooth="yes"/>
      <point x="625" y="1020"/>
      <point x="675" y="944"/>
      <point x="675" y="806" type="curve"/>
      <point x="675" y="737" type="line" smooth="yes"/>
      <point x="675" y="596"/>
      <point x="626" y="520"/>
      <point x="500" y="520" type="curve" smooth="yes"/>
      <point x="415" y="520"/>
      <point x="342" y="561"/>
      <point x="315" y="618" type="curve"/>
      <point x="310" y="618" type="line"/>
      <point x="310" y="534" type="line"/>
      <point x="327" y="534" type="line"/>
      <point x="370" y="420" type="line"/>
      <point x="405" y="397"/>
      <point x="466" y="374"/>
      <point x="552" y="374" type="curve" smooth="yes"/>
      <point x="765" y="374"/>
      <point x="856" y="510"/>
      <point x="856" y="736" type="curve"/>
      <point x="856" y="803" type="line" smooth="yes"/>
      <point x="856" y="1032"/>
      <point x="753" y="1174"/>
      <point x="521" y="1174" type="curve" smooth="yes"/>
      <point x="268" y="1174"/>
      <point x="138" y="1015"/>
      <point x="138" y="682" type="curve" smooth="yes"/>
      <point x="138" y="531" type="line" smooth="yes"/>
      <point x="138" y="-245"/>
      <point x="641" y="-606"/>
      <point x="1782" y="-606" type="curve" smooth="yes"/>
      <point x="1866" y="-606" type="line" smooth="yes"/>
      <point x="2895" y="-606"/>
      <point x="3321" y="-293"/>
      <point x="3321" y="313" type="curve" smooth="yes"/>
      <point x="3321" y="336" type="line" smooth="yes"/>
      <point x="3321" y="611"/>
      <point x="3234" y="755"/>
    </contour>
    <component base="RaBeak_Nonexporting" xOffset="2628"/>
  </outline>
</glyph>
<glyph name="LllaMatraI_Simple_Fly.tm" format="2">
  <advance width="1686"/>
  <note>
LllaMatraI.tm
</note>
  <anchor x="853" y="1239" name="top"/>
  <outline>
    <contour>
      <point x="767" y="87" type="line"/>
      <point x="767" y="-14" type="line" smooth="yes"/>
      <point x="767" y="-163"/>
      <point x="745" y="-212"/>
      <point x="603" y="-212" type="curve" smooth="yes"/>
      <point x="56" y="-212" type="line"/>
      <point x="82" y="-368" type="line"/>
      <point x="617" y="-368" type="line" smooth="yes"/>
      <point x="785" y="-368"/>
      <point x="848" y="-315"/>
      <point x="861" y="-164" type="curve"/>
      <point x="868" y="-164" type="line"/>
      <point x="886" y="-315"/>
      <point x="949" y="-368"/>
      <point x="1098" y="-368" type="curve" smooth="yes"/>
      <point x="1359" y="-368" type="line"/>
      <point x="1384" y="-216" type="line"/>
      <point x="1122" y="-216" type="line" smooth="yes"/>
      <point x="989" y="-216"/>
      <point x="951" y="-164"/>
      <point x="951" y="-10" type="curve" smooth="yes"/>
      <point x="951" y="87" type="line"/>
    </contour>
    <component base="MaMatraI_Fly.tm"/>
  </outline>
</glyph>
<glyph name="LllaMatraU_Simple.tm" format="2">
  <advance width="2278"/>
  <note>
LllaMatraU.tm
</note>
  <anchor x="1445" y="1239" name="top"/>
  <outline>
    <contour>
      <point x="158" y="1147" type="line"/>
      <point x="158" y="308" type="line"/>
      <point x="158" y="-284"/>
      <point x="440" y="-592"/>
      <point x="1056" y="-592" type="curve" smooth="yes"/>
      <point x="1362" y="-592"/>
      <point x="1567" y="-493"/>
      <point x="1723" y="-367" type="curve" smooth="yes"/>
      <point x="1738" y="-355" type="line" smooth="yes"/>
      <point x="1770" y="-330"/>
      <point x="1791" y="-318"/>
      <point x="1831" y="-318" type="curve" smooth="yes"/>
      <point x="1926" y="-318" type="line"/>
      <point x="1950" y="-174" type="line"/>
      <point x="1729" y="-174" type="line" smooth="yes"/>
      <point x="1577" y="-174"/>
      <point x="1539" y="-126"/>
      <point x="1539" y="3" type="curve" smooth="yes"/>
      <point x="1539" y="84" type="line"/>
      <point x="1357" y="84" type="line"/>
      <point x="1357" y="-7" type="line" smooth="yes"/>
      <point x="1357" y="-158"/>
      <point x="1419" y="-243"/>
      <point x="1589" y="-257" type="curve"/>
      <point x="1589" y="-261" type="line"/>
      <point x="1570" y="-265"/>
      <point x="1552" y="-275"/>
      <point x="1530" y="-289" type="curve" smooth="yes"/>
      <point x="1517" y="-298" type="line" smooth="yes"/>
      <point x="1419" y="-368"/>
      <point x="1279" y="-432"/>
      <point x="1057" y="-432" type="curve" smooth="yes"/>
      <point x="554" y="-432"/>
      <point x="347" y="-177"/>
      <point x="347" y="304" type="curve"/>
      <point x="347" y="1147" type="line"/>
    </contour>
    <component base="Ma.tm" xOffset="592"/>
  </outline>
</glyph>
<glyph name="MaMatraIi_SimpleIi.tm" format="2">
  <advance width="1691"/>
  <note>
MaMatraIi.tm
</note>
  <anchor x="853" y="1239" name="top"/>
  <outline>
    <contour>
      <point x="1292" y="1838" type="curve" smooth="yes"/>
      <point x="1055" y="1838"/>
      <point x="947" y="1713"/>
      <point x="947" y="1488" type="curve" smooth="yes"/>
      <point x="947" y="1413" type="line" smooth="yes"/>
      <point x="947" y="1276"/>
      <point x="983" y="1180"/>
      <point x="1046" y="1126" type="curve"/>
      <point x="1226" y="1119" type="line"/>
      <point x="1152" y="1182"/>
      <point x="1120" y="1273"/>
      <point x="1120" y="1396" type="curve" smooth="yes"/>
      <point x="1120" y="1451" type="line"/>
      <point x="1120" y="1512" type="line" smooth="yes"/>
      <point x="1120" y="1638"/>
      <point x="1179" y="1697"/>
      <point x="1288" y="1697" type="curve" smooth="yes"/>
      <point x="1388" y="1697"/>
      <point x="1439" y="1649"/>
      <point x="1439" y="1559" type="curve" smooth="yes"/>
      <point x="1439" y="1539" type="line" smooth="yes"/>
      <point x="1439" y="1447"/>
      <point x="1395" y="1399"/>
      <point x="1293" y="1399" type="curve" smooth="yes"/>
      <point x="1204" y="1399"/>
      <point x="1145" y="1441"/>
      <point x="1116" y="1496" type="curve"/>
      <point x="1112" y="1496" type="line"/>
      <point x="1114" y="1427" type="line"/>
      <point x="1125" y="1427" type="line"/>
      <point x="1170" y="1306" type="line"/>
      <point x="1197" y="1283"/>
      <point x="1260" y="1266"/>
      <point x="1338" y="1266" type="curve" smooth="yes"/>
      <point x="1526" y="1266"/>
      <point x="1609" y="1362"/>
      <point x="1609" y="1536" type="curve" smooth="yes"/>
      <point x="1609" y="1553" type="line" smooth="yes"/>
      <point x="1609" y="1733"/>
      <point x="1509" y="1838"/>
    </contour>
    <component base="Ma.tm"/>
  </outline>
</glyph>
<glyph name="MaMatraU_Simple.tm" format="2">
  <advance width="2312"/>
  <note>
MaMatraU.tm
</note>
  <anchor x="1479" y="1239" name="top"/>
  <outline>
    <contour>
      <point x="158" y="1147" type="line"/>
      <point x="158" y="352" type="line"/>
      <point x="158" y="-217"/>
      <point x="391" y="-526"/>
      <point x="902" y="-526" type="curve" smooth="yes"/>
      <point x="906" y="-526" type="line" smooth="yes"/>
      <point x="1350" y="-526"/>
      <point x="1558" y="-324"/>
      <point x="1569" y="38" type="curve"/>
      <point x="1571" y="98" type="line"/>
      <point x="1384" y="100" type="line"/>
      <point x="1382" y="43" type="line"/>
      <point x="1373" y="-224"/>
      <point x="1231" y="-366"/>
      <point x="906" y="-366" type="curve" smooth="yes"/>
      <point x="902" y="-366" type="line" smooth="yes"/>
      <point x="506" y="-366"/>
      <point x="347" y="-110"/>
      <point x="347" y="346" type="curve"/>
      <point x="347" y="1147" type="line"/>
    </contour>
    <component base="Ma.tm" xOffset="626"/>
  </outline>
</glyph>
<glyph name="MatraAa_dummy.tm" format="2">
  <advance width="1154"/>
  <note>
RaAltMatraAa.tm
</note>
  <outline>
    <contour>
      <point x="752" y="1098" type="line"/>
      <point x="752" y="0" type="line"/>
      <point x="938" y="0" type="line"/>
      <point x="938" y="1098" type="line"/>
    </contour>
    <contour>
      <point x="901" y="1147" type="line"/>
      <point x="168" y="1147" type="line"/>
      <point x="168" y="0" type="line"/>
      <point x="354" y="0" type="line"/>
      <point x="354" y="994" type="line"/>
      <point x="901" y="994" type="line"/>
    </contour>
    <component base="RaBeak_Nonexporting" xOffset="657"/>
  </outline>
</glyph>
<glyph name="MatraEe_Fused.tm" format="2">
  <advance width="946"/>
  <note>
MatraEe.tm
</note>
  <outline>
    <contour>
      <point x="518" y="1456" type="curve" smooth="yes"/>
      <point x="250" y="1456"/>
      <point x="129" y="1291"/>
      <point x="129" y="1020" type="curve"/>
      <point x="129" y="415" type="line"/>
      <point x="129" y="144"/>
      <point x="250" y="-21"/>
      <point x="518" y="-21" type="curve" smooth="yes"/>
      <point x="759" y="-21"/>
      <point x="860" y="112"/>
      <point x="860" y="319" type="curve" smooth="yes"/>
      <point x="860" y="368" type="line" smooth="yes"/>
      <point x="860" y="568"/>
      <point x="767" y="676"/>
      <point x="578" y="676" type="curve" smooth="yes"/>
      <point x="430" y="676"/>
      <point x="339" y="595"/>
      <point x="311" y="494" type="curve"/>
      <point x="298" y="494" type="line"/>
      <point x="301" y="379" type="line"/>
      <point x="324" y="464"/>
      <point x="404" y="525"/>
      <point x="507" y="525" type="curve" smooth="yes"/>
      <point x="627" y="525"/>
      <point x="682" y="465"/>
      <point x="682" y="354" type="curve" smooth="yes"/>
      <point x="682" y="305" type="line" smooth="yes"/>
      <point x="682" y="194"/>
      <point x="630" y="129"/>
      <point x="512" y="129" type="curve" smooth="yes"/>
      <point x="374" y="129"/>
      <point x="310" y="218"/>
      <point x="310" y="367" type="curve" smooth="yes"/>
      <point x="310" y="494" type="line"/>
      <point x="304" y="494" type="line"/>
      <point x="304" y="941" type="line"/>
      <point x="310" y="941" type="line"/>
      <point x="310" y="1068" type="line"/>
      <point x="310" y="1217"/>
      <point x="374" y="1306"/>
      <point x="512" y="1306" type="curve" smooth="yes"/>
      <point x="630" y="1306"/>
      <point x="682" y="1241"/>
      <point x="682" y="1130" type="curve" smooth="yes"/>
      <point x="682" y="1081" type="line" smooth="yes"/>
      <point x="682" y="970"/>
      <point x="627" y="910"/>
      <point x="507" y="910" type="curve" smooth="yes"/>
      <point x="404" y="910"/>
      <point x="324" y="971"/>
      <point x="301" y="1056" type="curve"/>
      <point x="298" y="941" type="line"/>
      <point x="311" y="941" type="line"/>
      <point x="339" y="840"/>
      <point x="429" y="759"/>
      <point x="578" y="759" type="curve" smooth="yes"/>
      <point x="767" y="759"/>
      <point x="860" y="867"/>
      <point x="860" y="1066" type="curve" smooth="yes"/>
      <point x="860" y="1116" type="line" smooth="yes"/>
      <point x="860" y="1323"/>
      <point x="759" y="1456"/>
    </contour>
  </outline>
</glyph>
<glyph name="MatraIDflt_Fly.tm" format="2">
  <note>
MatraIDflt.tm
</note>
  <outline>
    <contour>
      <point x="610" y="1577" type="line"/>
      <point x="273" y="1577" type="line" smooth="yes"/>
      <point x="83" y="1577"/>
      <point x="2" y="1512"/>
      <point x="2" y="1380" type="curve" smooth="yes"/>
      <point x="2" y="1305"/>
      <point x="32" y="1233"/>
      <point x="81" y="1139" type="curve"/>
      <point x="262" y="1139" type="line"/>
      <point x="224" y="1200"/>
      <point x="193" y="1265"/>
      <point x="193" y="1320" type="curve" smooth="yes"/>
      <point x="193" y="1390"/>
      <point x="230" y="1420"/>
      <point x="332" y="1420" type="curve" smooth="yes"/>
      <point x="635" y="1420" type="line"/>
    </contour>
  </outline>
</glyph>
<glyph name="NaMatraI_Simple.tm" format="2">
  <advance width="1643"/>
  <note>
NaMatraI.tm
</note>
  <outline>
    <contour>
      <point x="741" y="1099" type="line"/>
      <point x="741" y="0" type="line"/>
      <point x="926" y="0" type="line"/>
      <point x="926" y="1099" type="line"/>
    </contour>
    <contour>
      <point x="1205" y="755" type="curve" smooth="yes"/>
      <point x="1052" y="755"/>
      <point x="959" y="665"/>
      <point x="934" y="552" type="curve"/>
      <point x="902" y="552" type="line"/>
      <point x="902" y="399" type="line"/>
      <point x="916" y="399" type="line"/>
      <point x="944" y="513"/>
      <point x="1022" y="588"/>
      <point x="1131" y="588" type="curve" smooth="yes"/>
      <point x="1271" y="588"/>
      <point x="1323" y="497"/>
      <point x="1323" y="315" type="curve" smooth="yes"/>
      <point x="1323" y="238" type="line" smooth="yes"/>
      <point x="1323" y="-100"/>
      <point x="1196" y="-212"/>
      <point x="811" y="-212" type="curve" smooth="yes"/>
      <point x="53" y="-212" type="line"/>
      <point x="79" y="-368" type="line"/>
      <point x="822" y="-368" type="line" smooth="yes"/>
      <point x="1338" y="-368"/>
      <point x="1513" y="-197"/>
      <point x="1513" y="245" type="curve" smooth="yes"/>
      <point x="1513" y="334" type="line" smooth="yes"/>
      <point x="1513" y="611"/>
      <point x="1423" y="755"/>
    </contour>
    <contour>
      <point x="1053" y="1147" type="line"/>
      <point x="168" y="1147" type="line"/>
      <point x="168" y="0" type="line"/>
      <point x="354" y="0" type="line"/>
      <point x="354" y="994" type="line"/>
      <point x="1053" y="994" type="line"/>
    </contour>
    <contour>
      <point x="1101" y="1742" type="curve" smooth="yes"/>
      <point x="836" y="1742"/>
      <point x="699" y="1595"/>
      <point x="699" y="1358" type="curve"/>
      <point x="699" y="1354" type="line" smooth="yes"/>
      <point x="699" y="1272"/>
      <point x="722" y="1186"/>
      <point x="750" y="1139" type="curve"/>
      <point x="925" y="1139" type="line"/>
      <point x="898" y="1185"/>
      <point x="881" y="1250"/>
      <point x="881" y="1331" type="curve" smooth="yes"/>
      <point x="881" y="1334" type="line" smooth="yes"/>
      <point x="881" y="1501"/>
      <point x="951" y="1585"/>
      <point x="1098" y="1585" type="curve" smooth="yes"/>
      <point x="1257" y="1585"/>
      <point x="1315" y="1496"/>
      <point x="1315" y="1296" type="curve" smooth="yes"/>
      <point x="1315" y="834" type="line"/>
      <point x="1497" y="834" type="line"/>
      <point x="1497" y="1290" type="line" smooth="yes"/>
      <point x="1497" y="1597"/>
      <point x="1380" y="1742"/>
    </contour>
    <component base="RaBeak_Nonexporting" xOffset="672"/>
  </outline>
</glyph>
<glyph name="Na_Simple.tm" format="2">
  <advance width="1622"/>
  <note>
Na.tm
</note>
  <anchor x="829" y="1239" name="top"/>
  <outline>
    <contour>
      <point x="740" y="1099" type="line"/>
      <point x="740" y="0" type="line"/>
      <point x="926" y="0" type="line"/>
      <point x="926" y="1099" type="line"/>
    </contour>
    <contour>
      <point x="1205" y="755" type="curve" smooth="yes"/>
      <point x="1051" y="755"/>
      <point x="959" y="669"/>
      <point x="934" y="552" type="curve"/>
      <point x="902" y="552" type="line"/>
      <point x="902" y="399" type="line"/>
      <point x="916" y="399" type="line"/>
      <point x="944" y="513"/>
      <point x="1021" y="588"/>
      <point x="1131" y="588" type="curve" smooth="yes"/>
      <point x="1271" y="588"/>
      <point x="1323" y="497"/>
      <point x="1323" y="315" type="curve" smooth="yes"/>
      <point x="1323" y="238" type="line" smooth="yes"/>
      <point x="1323" y="-100"/>
      <point x="1195" y="-212"/>
      <point x="811" y="-212" type="curve" smooth="yes"/>
      <point x="53" y="-212" type="line"/>
      <point x="79" y="-368" type="line"/>
      <point x="821" y="-368" type="line" smooth="yes"/>
      <point x="1338" y="-368"/>
      <point x="1513" y="-197"/>
      <point x="1513" y="245" type="curve" smooth="yes"/>
      <point x="1513" y="334" type="line" smooth="yes"/>
      <point x="1513" y="611"/>
      <point x="1423" y="755"/>
    </contour>
    <contour>
      <point x="1044" y="1147" type="line"/>
      <point x="168" y="1147" type="line"/>
      <point x="168" y="0" type="line"/>
      <point x="354" y="0" type="line"/>
      <point x="354" y="994" type="line"/>
      <point x="1044" y="994" type="line"/>
    </contour>
    <component base="RaBeak_Nonexporting" xOffset="830"/>
  </outline>
</glyph>
<glyph name="NgaMatraI.tm" format="2">
  <advance width="2739"/>
  <note>
NgaMatraI.tm
</note>
  <outline>
    <contour>
      <point x="752" y="1095" type="line"/>
      <point x="752" y="0" type="line"/>
      <point x="938" y="0" type="line"/>
      <point x="938" y="1095" type="line"/>
    </contour>
    <contour>
      <point x="1219" y="762" type="curve" smooth="yes"/>
      <point x="1056" y="762"/>
      <point x="969" y="669"/>
      <point x="945" y="556" type="curve"/>
      <point x="927" y="556" type="line"/>
      <point x="927" y="429" type="line"/>
      <point x="932" y="429" type="line"/>
      <point x="964" y="531"/>
      <point x="1038" y="594"/>
      <point x="1138" y="594" type="curve" smooth="yes"/>
      <point x="1261" y="594"/>
      <point x="1310" y="517"/>
      <point x="1310" y="377" type="curve" smooth="yes"/>
      <point x="1310" y="339" type="line" smooth="yes"/>
      <point x="1310" y="186"/>
      <point x="1280" y="98"/>
      <point x="1206" y="13" type="curve"/>
      <point x="1206" y="0" type="line"/>
      <point x="1933" y="0" type="line"/>
      <point x="1933" y="151" type="line"/>
      <point x="1364" y="151" type="line"/>
      <point x="1422" y="103" type="line"/>
      <point x="1465" y="173"/>
      <point x="1490" y="255"/>
      <point x="1490" y="402" type="curve" smooth="yes"/>
      <point x="1490" y="441" type="line" smooth="yes"/>
      <point x="1490" y="648"/>
      <point x="1404" y="762"/>
    </contour>
    <contour>
      <point x="1853" y="1147" type="line"/>
      <point x="1853" y="0" type="line"/>
      <point x="2039" y="0" type="line"/>
      <point x="2039" y="1147" type="line"/>
    </contour>
    <contour>
      <point x="1991" y="1742" type="curve" smooth="yes"/>
      <point x="1619" y="1742"/>
      <point x="1417" y="1545"/>
      <point x="1417" y="1212" type="curve" smooth="yes"/>
      <point x="1417" y="1192" type="line" smooth="yes"/>
      <point x="1417" y="890"/>
      <point x="1580" y="732"/>
      <point x="1870" y="713" type="curve"/>
      <point x="1870" y="873" type="line"/>
      <point x="1689" y="888"/>
      <point x="1600" y="1000"/>
      <point x="1600" y="1186" type="curve" smooth="yes"/>
      <point x="1600" y="1210" type="line" smooth="yes"/>
      <point x="1600" y="1448"/>
      <point x="1736" y="1582"/>
      <point x="1991" y="1582" type="curve" smooth="yes"/>
      <point x="2275" y="1582"/>
      <point x="2385" y="1445"/>
      <point x="2385" y="1149" type="curve" smooth="yes"/>
      <point x="2385" y="0" type="line"/>
      <point x="2571" y="0" type="line"/>
      <point x="2571" y="1140" type="line" smooth="yes"/>
      <point x="2571" y="1539"/>
      <point x="2394" y="1742"/>
    </contour>
    <contour>
      <point x="1128" y="1147" type="line"/>
      <point x="168" y="1147" type="line"/>
      <point x="168" y="0" type="line"/>
      <point x="354" y="0" type="line"/>
      <point x="354" y="994" type="line"/>
      <point x="1128" y="994" type="line"/>
    </contour>
    <component base="RaBeak_Nonexporting" xOffset="786"/>
  </outline>
</glyph>
<glyph name="NgaMatraI_SimpleI.tm" format="2">
  <advance width="2624"/>
  <note>
NgaMatraI.tm
</note>
  <outline>
    <contour>
      <point x="752" y="1095" type="line"/>
      <point x="752" y="0" type="line"/>
      <point x="938" y="0" type="line"/>
      <point x="938" y="1095" type="line"/>
    </contour>
    <contour>
      <point x="1219" y="762" type="curve" smooth="yes"/>
      <point x="1056" y="762"/>
      <point x="969" y="669"/>
      <point x="945" y="556" type="curve"/>
      <point x="927" y="556" type="line"/>
      <point x="927" y="429" type="line"/>
      <point x="932" y="429" type="line"/>
      <point x="964" y="531"/>
      <point x="1038" y="594"/>
      <point x="1138" y="594" type="curve" smooth="yes"/>
      <point x="1261" y="594"/>
      <point x="1310" y="517"/>
      <point x="1310" y="377" type="curve" smooth="yes"/>
      <point x="1310" y="339" type="line" smooth="yes"/>
      <point x="1310" y="186"/>
      <point x="1280" y="98"/>
      <point x="1206" y="13" type="curve"/>
      <point x="1206" y="0" type="line"/>
      <point x="1933" y="0" type="line"/>
      <point x="1933" y="151" type="line"/>
      <point x="1364" y="151" type="line"/>
      <point x="1422" y="103" type="line"/>
      <point x="1465" y="173"/>
      <point x="1490" y="255"/>
      <point x="1490" y="402" type="curve" smooth="yes"/>
      <point x="1490" y="441" type="line" smooth="yes"/>
      <point x="1490" y="648"/>
      <point x="1404" y="762"/>
    </contour>
    <contour>
      <point x="1756" y="1147" type="line"/>
      <point x="1756" y="0" type="line"/>
      <point x="1941" y="0" type="line"/>
      <point x="1941" y="1147" type="line"/>
    </contour>
    <contour>
      <point x="1128" y="1147" type="line"/>
      <point x="168" y="1147" type="line"/>
      <point x="168" y="0" type="line"/>
      <point x="354" y="0" type="line"/>
      <point x="354" y="994" type="line"/>
      <point x="1128" y="994" type="line"/>
    </contour>
    <contour>
      <point x="1949" y="1737" type="curve" smooth="yes"/>
      <point x="1636" y="1737"/>
      <point x="1463" y="1589"/>
      <point x="1463" y="1353" type="curve" smooth="yes"/>
      <point x="1463" y="1351" type="line" smooth="yes"/>
      <point x="1463" y="1122"/>
      <point x="1600" y="1004"/>
      <point x="1829" y="1000" type="curve"/>
      <point x="1880" y="1147" type="line"/>
      <point x="1728" y="1147"/>
      <point x="1647" y="1213"/>
      <point x="1647" y="1347" type="curve" smooth="yes"/>
      <point x="1647" y="1349" type="line" smooth="yes"/>
      <point x="1647" y="1494"/>
      <point x="1752" y="1578"/>
      <point x="1949" y="1578" type="curve" smooth="yes"/>
      <point x="2180" y="1578"/>
      <point x="2270" y="1481"/>
      <point x="2270" y="1255" type="curve" smooth="yes"/>
      <point x="2270" y="0" type="line"/>
      <point x="2456" y="0" type="line"/>
      <point x="2456" y="1245" type="line" smooth="yes"/>
      <point x="2456" y="1582"/>
      <point x="2305" y="1737"/>
    </contour>
    <component base="RaBeak_Nonexporting" xOffset="861"/>
  </outline>
</glyph>
<glyph name="NnaMatraI.tm" format="2">
  <advance width="3925"/>
  <note>
NnaMatraI.tm
</note>
  <outline>
    <contour>
      <point x="1881" y="1178" type="curve" smooth="yes"/>
      <point x="1629" y="1178"/>
      <point x="1453" y="1133"/>
      <point x="1335" y="1068" type="curve"/>
      <point x="1439" y="958" type="line"/>
      <point x="1540" y="998"/>
      <point x="1686" y="1028"/>
      <point x="1881" y="1028" type="curve" smooth="yes"/>
      <point x="2073" y="1028"/>
      <point x="2224" y="999"/>
      <point x="2314" y="961" type="curve"/>
      <point x="2324" y="956" type="line"/>
      <point x="2482" y="887"/>
      <point x="2531" y="742"/>
      <point x="2531" y="540" type="curve" smooth="yes"/>
      <point x="2531" y="405" type="line" smooth="yes"/>
      <point x="2531" y="233"/>
      <point x="2481" y="135"/>
      <point x="2352" y="135" type="curve" smooth="yes"/>
      <point x="2222" y="135"/>
      <point x="2169" y="233"/>
      <point x="2169" y="405" type="curve" smooth="yes"/>
      <point x="2169" y="540" type="line" smooth="yes"/>
      <point x="2169" y="741"/>
      <point x="2219" y="887"/>
      <point x="2380" y="956" type="curve"/>
      <point x="2300" y="1055" type="line"/>
      <point x="2066" y="977"/>
      <point x="1983" y="777"/>
      <point x="1983" y="531" type="curve" smooth="yes"/>
      <point x="1983" y="401" type="line" smooth="yes"/>
      <point x="1983" y="144"/>
      <point x="2093" y="-23"/>
      <point x="2354" y="-23" type="curve" smooth="yes"/>
      <point x="2611" y="-23"/>
      <point x="2716" y="142"/>
      <point x="2716" y="401" type="curve" smooth="yes"/>
      <point x="2716" y="531" type="line" smooth="yes"/>
      <point x="2716" y="777"/>
      <point x="2636" y="964"/>
      <point x="2434" y="1059" type="curve"/>
      <point x="2433" y="1065" type="line"/>
      <point x="2319" y="1130"/>
      <point x="2144" y="1178"/>
    </contour>
    <contour>
      <point x="2986" y="1017" type="line"/>
      <point x="2986" y="0" type="line"/>
      <point x="3172" y="0" type="line"/>
      <point x="3172" y="1015" type="line"/>
    </contour>
    <contour>
      <point x="3114" y="1147" type="line"/>
      <point x="2679" y="1147" type="line" smooth="yes"/>
      <point x="2574" y="1147"/>
      <point x="2494" y="1139"/>
      <point x="2428" y="1131" type="curve"/>
      <point x="2387" y="980" type="line"/>
      <point x="2466" y="991"/>
      <point x="2553" y="996"/>
      <point x="2662" y="996" type="curve" smooth="yes"/>
      <point x="3114" y="996" type="line"/>
    </contour>
    <contour>
      <point x="935" y="1180" type="curve" smooth="yes"/>
      <point x="403" y="1180"/>
      <point x="124" y="952"/>
      <point x="124" y="538" type="curve" smooth="yes"/>
      <point x="124" y="395" type="line" smooth="yes"/>
      <point x="124" y="140"/>
      <point x="237" y="-23"/>
      <point x="497" y="-23" type="curve" smooth="yes"/>
      <point x="739" y="-23"/>
      <point x="841" y="117"/>
      <point x="841" y="334" type="curve" smooth="yes"/>
      <point x="841" y="423" type="line" smooth="yes"/>
      <point x="841" y="635"/>
      <point x="752" y="750"/>
      <point x="570" y="750" type="curve" smooth="yes"/>
      <point x="422" y="750"/>
      <point x="331" y="664"/>
      <point x="307" y="559" type="curve"/>
      <point x="292" y="559" type="line"/>
      <point x="297" y="434" type="line"/>
      <point x="318" y="520"/>
      <point x="393" y="592"/>
      <point x="496" y="592" type="curve" smooth="yes"/>
      <point x="611" y="592"/>
      <point x="661" y="527"/>
      <point x="661" y="405" type="curve" smooth="yes"/>
      <point x="661" y="325" type="line" smooth="yes"/>
      <point x="661" y="199"/>
      <point x="610" y="125"/>
      <point x="493" y="125" type="curve" smooth="yes"/>
      <point x="362" y="125"/>
      <point x="306" y="211"/>
      <point x="306" y="356" type="curve"/>
      <point x="306" y="539" type="line"/>
      <point x="300" y="539" type="line"/>
      <point x="300" y="546"/>
      <point x="300" y="553"/>
      <point x="300" y="557" type="curve" smooth="yes"/>
      <point x="304" y="866"/>
      <point x="515" y="1025"/>
      <point x="939" y="1025" type="curve" smooth="yes"/>
      <point x="1144" y="1025"/>
      <point x="1280" y="997"/>
      <point x="1367" y="962" type="curve"/>
      <point x="1379" y="958" type="line"/>
      <point x="1536" y="889"/>
      <point x="1584" y="743"/>
      <point x="1584" y="540" type="curve" smooth="yes"/>
      <point x="1584" y="405" type="line" smooth="yes"/>
      <point x="1584" y="233"/>
      <point x="1535" y="135"/>
      <point x="1407" y="135" type="curve" smooth="yes"/>
      <point x="1276" y="135"/>
      <point x="1222" y="233"/>
      <point x="1222" y="405" type="curve" smooth="yes"/>
      <point x="1222" y="540" type="line" smooth="yes"/>
      <point x="1222" y="743"/>
      <point x="1273" y="889"/>
      <point x="1434" y="958" type="curve"/>
      <point x="1353" y="1057" type="line"/>
      <point x="1121" y="979"/>
      <point x="1037" y="778"/>
      <point x="1037" y="531" type="curve" smooth="yes"/>
      <point x="1037" y="401" type="line" smooth="yes"/>
      <point x="1037" y="144"/>
      <point x="1147" y="-23"/>
      <point x="1407" y="-23" type="curve" smooth="yes"/>
      <point x="1665" y="-23"/>
      <point x="1769" y="142"/>
      <point x="1769" y="401" type="curve" smooth="yes"/>
      <point x="1769" y="531" type="line" smooth="yes"/>
      <point x="1769" y="778"/>
      <point x="1690" y="965"/>
      <point x="1488" y="1060" type="curve"/>
      <point x="1486" y="1067" type="line"/>
      <point x="1374" y="1133"/>
      <point x="1198" y="1180"/>
    </contour>
    <component base="MatraIDflt.tm" xOffset="2945.991"/>
    <component base="RaBeak_Nonexporting" xOffset="2887"/>
  </outline>
</glyph>
<glyph name="NoTail_NonExporting" format="2">
  <advance width="540"/>
  <outline>
    <contour>
      <point x="518" y="-207" type="line"/>
      <point x="-14" y="-207" type="line"/>
      <point x="12" y="-363" type="line"/>
      <point x="518" y="-363" type="line"/>
    </contour>
  </outline>
</glyph>
<glyph name="NyaMatraU.tm" format="2">
  <advance width="2526"/>
  <note>
NyaMatraU.tm
</note>
  <outline>
    <contour>
      <point x="1093" y="1099" type="line"/>
      <point x="1093" y="0" type="line"/>
      <point x="1279" y="0" type="line"/>
      <point x="1279" y="1099" type="line"/>
    </contour>
    <contour>
      <point x="1552" y="755" type="curve" smooth="yes"/>
      <point x="1403" y="755"/>
      <point x="1311" y="671"/>
      <point x="1287" y="557" type="curve"/>
      <point x="1254" y="557" type="line"/>
      <point x="1254" y="404" type="line"/>
      <point x="1269" y="404" type="line"/>
      <point x="1294" y="519"/>
      <point x="1371" y="588"/>
      <point x="1478" y="588" type="curve" smooth="yes"/>
      <point x="1624" y="588"/>
      <point x="1670" y="485"/>
      <point x="1670" y="280" type="curve" smooth="yes"/>
      <point x="1670" y="168" type="line" smooth="yes"/>
      <point x="1670" y="-3"/>
      <point x="1654" y="-158"/>
      <point x="1637" y="-242" type="curve"/>
      <point x="1633" y="-277" type="line"/>
      <point x="1589" y="-482"/>
      <point x="1399" y="-646"/>
      <point x="967" y="-646" type="curve" smooth="yes"/>
      <point x="518" y="-646"/>
      <point x="326" y="-490"/>
      <point x="287" y="-336" type="curve"/>
      <point x="2358" y="-336" type="line"/>
      <point x="2358" y="-186" type="line"/>
      <point x="63" y="-186" type="line"/>
      <point x="88" y="-558"/>
      <point x="384" y="-798"/>
      <point x="967" y="-798" type="curve" smooth="yes"/>
      <point x="1511" y="-798"/>
      <point x="1762" y="-580"/>
      <point x="1824" y="-284" type="curve"/>
      <point x="1826" y="-256" type="line"/>
      <point x="1843" y="-163"/>
      <point x="1857" y="-16"/>
      <point x="1857" y="173" type="curve" smooth="yes"/>
      <point x="1857" y="297" type="line" smooth="yes"/>
      <point x="1857" y="598"/>
      <point x="1774" y="755"/>
    </contour>
    <contour>
      <point x="2172" y="1146" type="line"/>
      <point x="2172" y="-298" type="line"/>
      <point x="2358" y="-298" type="line"/>
      <point x="2358" y="1146" type="line"/>
    </contour>
    <contour>
      <point x="967" y="1147" type="line"/>
      <point x="967" y="994" type="line"/>
      <point x="1365" y="994" type="line"/>
      <point x="1365" y="1147" type="line"/>
    </contour>
    <component base="VowelE_NonExporting" xOffset="20"/>
    <component base="RaBeak_Nonexporting" xOffset="1183"/>
  </outline>
</glyph>
<glyph name="PaMatraI.tm" format="2">
  <advance width="2059"/>
  <note>
PaMatraI.tm
</note>
  <outline>
    <contour>
      <point x="1171" y="1147" type="line"/>
      <point x="1171" y="158" type="line"/>
      <point x="729" y="158" type="line"/>
      <point x="729" y="0" type="line"/>
      <point x="1359" y="0" type="line"/>
      <point x="1359" y="1147" type="line"/>
    </contour>
    <contour>
      <point x="357" y="1147" type="line"/>
      <point x="168" y="1147" type="line"/>
      <point x="168" y="0" type="line"/>
      <point x="951" y="0" type="line"/>
      <point x="951" y="158" type="line"/>
      <point x="357" y="158" type="line"/>
    </contour>
    <contour>
      <point x="1311" y="1742" type="curve" smooth="yes"/>
      <point x="940" y="1742"/>
      <point x="738" y="1545"/>
      <point x="738" y="1212" type="curve" smooth="yes"/>
      <point x="738" y="1192" type="line" smooth="yes"/>
      <point x="738" y="890"/>
      <point x="900" y="732"/>
      <point x="1190" y="713" type="curve"/>
      <point x="1191" y="873" type="line"/>
      <point x="1010" y="888"/>
      <point x="921" y="1000"/>
      <point x="921" y="1186" type="curve" smooth="yes"/>
      <point x="921" y="1210" type="line" smooth="yes"/>
      <point x="921" y="1448"/>
      <point x="1057" y="1582"/>
      <point x="1311" y="1582" type="curve" smooth="yes"/>
      <point x="1595" y="1582"/>
      <point x="1705" y="1445"/>
      <point x="1705" y="1149" type="curve" smooth="yes"/>
      <point x="1705" y="0" type="line"/>
      <point x="1891" y="0" type="line"/>
      <point x="1891" y="1140" type="line" smooth="yes"/>
      <point x="1891" y="1539"/>
      <point x="1715" y="1742"/>
    </contour>
  </outline>
</glyph>
<glyph name="PaMatraI_SimpleI.tm" format="2">
  <advance width="2007"/>
  <note>
PaMatraI.tm
</note>
  <outline>
    <contour>
      <point x="1138" y="1147" type="line"/>
      <point x="1138" y="158" type="line"/>
      <point x="718" y="158" type="line"/>
      <point x="718" y="0" type="line"/>
      <point x="1326" y="0" type="line"/>
      <point x="1326" y="1147" type="line"/>
    </contour>
    <contour>
      <point x="356" y="1147" type="line"/>
      <point x="168" y="1147" type="line"/>
      <point x="168" y="0" type="line"/>
      <point x="929" y="0" type="line"/>
      <point x="929" y="158" type="line"/>
      <point x="356" y="158" type="line"/>
    </contour>
    <contour>
      <point x="1333" y="1737" type="curve" smooth="yes"/>
      <point x="1021" y="1737"/>
      <point x="847" y="1589"/>
      <point x="847" y="1353" type="curve" smooth="yes"/>
      <point x="847" y="1351" type="line" smooth="yes"/>
      <point x="847" y="1122"/>
      <point x="984" y="1004"/>
      <point x="1213" y="1000" type="curve"/>
      <point x="1264" y="1147" type="line"/>
      <point x="1113" y="1147"/>
      <point x="1031" y="1213"/>
      <point x="1031" y="1347" type="curve" smooth="yes"/>
      <point x="1031" y="1349" type="line" smooth="yes"/>
      <point x="1031" y="1494"/>
      <point x="1137" y="1578"/>
      <point x="1333" y="1578" type="curve" smooth="yes"/>
      <point x="1564" y="1578"/>
      <point x="1654" y="1481"/>
      <point x="1654" y="1255" type="curve" smooth="yes"/>
      <point x="1654" y="0" type="line"/>
      <point x="1839" y="0" type="line"/>
      <point x="1839" y="1245" type="line" smooth="yes"/>
      <point x="1839" y="1582"/>
      <point x="1690" y="1737"/>
    </contour>
  </outline>
</glyph>
<glyph name="PaMatraUu_SimpleUu.tm" format="2">
  <advance width="1821"/>
  <note>
PaMatraUu.tm
</note>
  <anchor x="708" y="1239" name="top"/>
  <outline>
    <contour>
      <point x="1115" y="274" type="line"/>
      <point x="1115" y="-320" type="line"/>
      <point x="1301" y="-320" type="line"/>
      <point x="1301" y="274" type="line"/>
    </contour>
    <contour>
      <point x="1541" y="305" type="curve" smooth="yes"/>
      <point x="1408" y="305"/>
      <point x="1330" y="223"/>
      <point x="1308" y="122" type="curve"/>
      <point x="1276" y="122" type="line"/>
      <point x="1276" y="-28" type="line"/>
      <point x="1289" y="-28" type="line"/>
      <point x="1312" y="75"/>
      <point x="1376" y="137"/>
      <point x="1469" y="137" type="curve" smooth="yes"/>
      <point x="1586" y="137"/>
      <point x="1627" y="53"/>
      <point x="1627" y="-104" type="curve" smooth="yes"/>
      <point x="1627" y="-161" type="line" smooth="yes"/>
      <point x="1627" y="-424"/>
      <point x="1514" y="-556"/>
      <point x="1247" y="-556" type="curve" smooth="yes"/>
      <point x="970" y="-556"/>
      <point x="855" y="-424"/>
      <point x="855" y="-166" type="curve"/>
      <point x="855" y="-96" type="line"/>
      <point x="670" y="-115" type="line"/>
      <point x="670" y="-169" type="line" smooth="yes"/>
      <point x="670" y="-522"/>
      <point x="845" y="-716"/>
      <point x="1247" y="-716" type="curve" smooth="yes"/>
      <point x="1643" y="-716"/>
      <point x="1813" y="-524"/>
      <point x="1813" y="-161" type="curve" smooth="yes"/>
      <point x="1813" y="-88" type="line" smooth="yes"/>
      <point x="1813" y="169"/>
      <point x="1735" y="305"/>
    </contour>
    <component base="Pa.tm"/>
  </outline>
</glyph>
<glyph name="RaBeak_Nonexporting" format="2">
  <advance width="510"/>
  <outline>
    <contour>
      <point x="142" y="994" type="line"/>
      <point x="510" y="994" type="line"/>
      <point x="491" y="1147" type="line"/>
      <point x="142" y="1147" type="line"/>
    </contour>
  </outline>
</glyph>
<glyph name="RaMatraUu.tm" format="2">
  <advance width="2491"/>
  <note>
RaMatraUu.tm
</note>
  <outline>
    <contour>
      <point x="1620" y="1098" type="line"/>
      <point x="1620" y="1" type="line"/>
      <point x="1806" y="1" type="line"/>
      <point x="1806" y="1098" type="line"/>
    </contour>
    <contour>
      <point x="2083" y="755" type="curve" smooth="yes"/>
      <point x="1929" y="755"/>
      <point x="1839" y="669"/>
      <point x="1813" y="552" type="curve"/>
      <point x="1781" y="552" type="line"/>
      <point x="1781" y="399" type="line"/>
      <point x="1796" y="399" type="line"/>
      <point x="1823" y="517"/>
      <point x="1898" y="588"/>
      <point x="2010" y="588" type="curve" smooth="yes"/>
      <point x="2146" y="588"/>
      <point x="2196" y="497"/>
      <point x="2196" y="319" type="curve" smooth="yes"/>
      <point x="2196" y="298" type="line" smooth="yes"/>
      <point x="2196" y="-157"/>
      <point x="1955" y="-380"/>
      <point x="1364" y="-380" type="curve" smooth="yes"/>
      <point x="1343" y="-380" type="line" smooth="yes"/>
      <point x="647" y="-380"/>
      <point x="324" y="-113"/>
      <point x="324" y="507" type="curve" smooth="yes"/>
      <point x="324" y="534" type="line"/>
      <point x="324" y="703" type="line"/>
      <point x="324" y="917"/>
      <point x="386" y="1020"/>
      <point x="516" y="1020" type="curve" smooth="yes"/>
      <point x="627" y="1020"/>
      <point x="677" y="944"/>
      <point x="677" y="806" type="curve"/>
      <point x="677" y="737" type="line" smooth="yes"/>
      <point x="677" y="596"/>
      <point x="628" y="520"/>
      <point x="502" y="520" type="curve" smooth="yes"/>
      <point x="417" y="520"/>
      <point x="344" y="561"/>
      <point x="317" y="618" type="curve"/>
      <point x="312" y="618" type="line"/>
      <point x="312" y="534" type="line"/>
      <point x="329" y="534" type="line"/>
      <point x="372" y="420" type="line"/>
      <point x="407" y="397"/>
      <point x="468" y="374"/>
      <point x="554" y="374" type="curve" smooth="yes"/>
      <point x="767" y="374"/>
      <point x="858" y="510"/>
      <point x="858" y="736" type="curve"/>
      <point x="858" y="803" type="line" smooth="yes"/>
      <point x="858" y="1032"/>
      <point x="755" y="1174"/>
      <point x="523" y="1174" type="curve" smooth="yes"/>
      <point x="270" y="1174"/>
      <point x="140" y="1015"/>
      <point x="140" y="682" type="curve" smooth="yes"/>
      <point x="140" y="496" type="line" smooth="yes"/>
      <point x="140" y="-214"/>
      <point x="547" y="-543"/>
      <point x="1344" y="-543" type="curve" smooth="yes"/>
      <point x="1363" y="-543" type="line" smooth="yes"/>
      <point x="2071" y="-543"/>
      <point x="2384" y="-257"/>
      <point x="2384" y="300" type="curve" smooth="yes"/>
      <point x="2384" y="336" type="line" smooth="yes"/>
      <point x="2384" y="611"/>
      <point x="2296" y="755"/>
    </contour>
    <contour>
      <point x="1911" y="1147" type="line"/>
      <point x="1047" y="1147" type="line"/>
      <point x="1047" y="0" type="line"/>
      <point x="1233" y="0" type="line"/>
      <point x="1233" y="994" type="line"/>
      <point x="1911" y="994" type="line"/>
    </contour>
    <component base="RaBeak_Nonexporting" xOffset="1706"/>
  </outline>
</glyph>
<glyph name="RraMatraAa.tm" format="2">
  <advance width="2225"/>
  <outline>
    <contour>
      <point x="255" y="1147" type="line"/>
      <point x="197" y="1008"/>
      <point x="145" y="781"/>
      <point x="145" y="483" type="curve" smooth="yes"/>
      <point x="145" y="-194"/>
      <point x="490" y="-512"/>
      <point x="1208" y="-512" type="curve" smooth="yes"/>
      <point x="1215" y="-512" type="line" smooth="yes"/>
      <point x="1819" y="-512"/>
      <point x="2107" y="-278"/>
      <point x="2107" y="176" type="curve" smooth="yes"/>
      <point x="2107" y="189" type="line" smooth="yes"/>
      <point x="2107" y="409"/>
      <point x="2012" y="512"/>
      <point x="1837" y="524" type="curve"/>
      <point x="1837" y="529" type="line"/>
      <point x="2003" y="543"/>
      <point x="2080" y="651"/>
      <point x="2080" y="820" type="curve" smooth="yes"/>
      <point x="2080" y="830" type="line" smooth="yes"/>
      <point x="2080" y="1048"/>
      <point x="1974" y="1172"/>
      <point x="1740" y="1172" type="curve" smooth="yes"/>
      <point x="1527" y="1172"/>
      <point x="1411" y="1071"/>
      <point x="1389" y="890" type="curve"/>
      <point x="1382" y="890" type="line"/>
      <point x="1365" y="1070"/>
      <point x="1272" y="1171"/>
      <point x="1079" y="1171" type="curve" smooth="yes"/>
      <point x="852" y="1171"/>
      <point x="726" y="1045"/>
      <point x="726" y="765" type="curve" smooth="yes"/>
      <point x="726" y="0" type="line"/>
      <point x="912" y="0" type="line"/>
      <point x="912" y="775" type="line" smooth="yes"/>
      <point x="912" y="940"/>
      <point x="982" y="1013"/>
      <point x="1103" y="1013" type="curve" smooth="yes"/>
      <point x="1232" y="1013"/>
      <point x="1287" y="941"/>
      <point x="1287" y="775" type="curve"/>
      <point x="1287" y="0" type="line"/>
      <point x="1473" y="0" type="line"/>
      <point x="1473" y="751" type="line" smooth="yes"/>
      <point x="1473" y="940"/>
      <point x="1558" y="1014"/>
      <point x="1702" y="1014" type="curve" smooth="yes"/>
      <point x="1843" y="1014"/>
      <point x="1902" y="940"/>
      <point x="1902" y="808" type="curve" smooth="yes"/>
      <point x="1902" y="798" type="line" smooth="yes"/>
      <point x="1902" y="674"/>
      <point x="1840" y="601"/>
      <point x="1686" y="597" type="curve" smooth="yes"/>
      <point x="1610" y="595" type="line"/>
      <point x="1610" y="447" type="line"/>
      <point x="1683" y="444" type="line" smooth="yes"/>
      <point x="1844" y="437"/>
      <point x="1920" y="368"/>
      <point x="1920" y="188" type="curve" smooth="yes"/>
      <point x="1920" y="179" type="line" smooth="yes"/>
      <point x="1920" y="-176"/>
      <point x="1700" y="-350"/>
      <point x="1215" y="-350" type="curve" smooth="yes"/>
      <point x="1208" y="-350" type="line" smooth="yes"/>
      <point x="599" y="-350"/>
      <point x="333" y="-86"/>
      <point x="333" y="483" type="curve" smooth="yes"/>
      <point x="333" y="767"/>
      <point x="375" y="981"/>
      <point x="447" y="1147" type="curve"/>
    </contour>
  </outline>
</glyph>
<glyph name="RraMatraAa_Simple.tm" format="2">
  <advance width="2210"/>
  <outline>
    <contour>
      <point x="158" y="1147" type="line"/>
      <point x="158" y="436" type="line"/>
      <point x="158" y="-214"/>
      <point x="491" y="-512"/>
      <point x="1195" y="-512" type="curve" smooth="yes"/>
      <point x="1202" y="-512" type="line" smooth="yes"/>
      <point x="1807" y="-512"/>
      <point x="2092" y="-282"/>
      <point x="2092" y="171" type="curve" smooth="yes"/>
      <point x="2092" y="199" type="line" smooth="yes"/>
      <point x="2092" y="415"/>
      <point x="2001" y="513"/>
      <point x="1825" y="523" type="curve"/>
      <point x="1825" y="529" type="line"/>
      <point x="1993" y="542"/>
      <point x="2067" y="649"/>
      <point x="2067" y="819" type="curve" smooth="yes"/>
      <point x="2067" y="834" type="line" smooth="yes"/>
      <point x="2067" y="1052"/>
      <point x="1963" y="1172"/>
      <point x="1728" y="1172" type="curve" smooth="yes"/>
      <point x="1516" y="1172"/>
      <point x="1401" y="1071"/>
      <point x="1379" y="890" type="curve"/>
      <point x="1372" y="890" type="line"/>
      <point x="1355" y="1070"/>
      <point x="1261" y="1171"/>
      <point x="1069" y="1171" type="curve" smooth="yes"/>
      <point x="841" y="1171"/>
      <point x="716" y="1045"/>
      <point x="716" y="765" type="curve" smooth="yes"/>
      <point x="716" y="0" type="line"/>
      <point x="902" y="0" type="line"/>
      <point x="902" y="775" type="line" smooth="yes"/>
      <point x="902" y="940"/>
      <point x="972" y="1013"/>
      <point x="1093" y="1013" type="curve" smooth="yes"/>
      <point x="1222" y="1013"/>
      <point x="1277" y="941"/>
      <point x="1277" y="775" type="curve"/>
      <point x="1277" y="0" type="line"/>
      <point x="1463" y="0" type="line"/>
      <point x="1463" y="751" type="line" smooth="yes"/>
      <point x="1463" y="940"/>
      <point x="1546" y="1014"/>
      <point x="1691" y="1014" type="curve" smooth="yes"/>
      <point x="1833" y="1014"/>
      <point x="1889" y="942"/>
      <point x="1889" y="809" type="curve" smooth="yes"/>
      <point x="1889" y="794" type="line" smooth="yes"/>
      <point x="1889" y="673"/>
      <point x="1830" y="603"/>
      <point x="1674" y="597" type="curve" smooth="yes"/>
      <point x="1597" y="594" type="line"/>
      <point x="1597" y="447" type="line"/>
      <point x="1669" y="445" type="line" smooth="yes"/>
      <point x="1833" y="440"/>
      <point x="1905" y="372"/>
      <point x="1905" y="199" type="curve" smooth="yes"/>
      <point x="1905" y="174" type="line" smooth="yes"/>
      <point x="1905" y="-179"/>
      <point x="1688" y="-350"/>
      <point x="1202" y="-350" type="curve" smooth="yes"/>
      <point x="1194" y="-350" type="line" smooth="yes"/>
      <point x="602" y="-350"/>
      <point x="346" y="-106"/>
      <point x="346" y="431" type="curve"/>
      <point x="346" y="1147" type="line"/>
    </contour>
  </outline>
</glyph>
<glyph name="RraMatraIi_Simple.tm" format="2">
  <advance width="1661"/>
  <note>
RraMatraIi.tm
</note>
  <anchor x="827" y="1239" name="top"/>
  <outline>
    <contour>
      <point x="1497" y="1865" type="curve" smooth="yes"/>
      <point x="1180" y="1865"/>
      <point x="1025" y="1715"/>
      <point x="1025" y="1453" type="curve" smooth="yes"/>
      <point x="1025" y="1441" type="line" smooth="yes"/>
      <point x="1025" y="1316"/>
      <point x="1072" y="1198"/>
      <point x="1124" y="1139" type="curve"/>
      <point x="1301" y="1139" type="line"/>
      <point x="1242" y="1206"/>
      <point x="1198" y="1315"/>
      <point x="1198" y="1430" type="curve" smooth="yes"/>
      <point x="1198" y="1441" type="line" smooth="yes"/>
      <point x="1198" y="1615"/>
      <point x="1285" y="1711"/>
      <point x="1447" y="1725" type="curve"/>
      <point x="1447" y="1719" type="line"/>
      <point x="1475" y="1724"/>
      <point x="1504" y="1727"/>
      <point x="1535" y="1727" type="curve" smooth="yes"/>
      <point x="1675" y="1727"/>
      <point x="1732" y="1665"/>
      <point x="1732" y="1550" type="curve" smooth="yes"/>
      <point x="1732" y="1542" type="line" smooth="yes"/>
      <point x="1732" y="1451"/>
      <point x="1693" y="1404"/>
      <point x="1611" y="1404" type="curve" smooth="yes"/>
      <point x="1520" y="1404"/>
      <point x="1481" y="1458"/>
      <point x="1481" y="1552" type="curve" smooth="yes"/>
      <point x="1481" y="1570" type="line" smooth="yes"/>
      <point x="1481" y="1637"/>
      <point x="1493" y="1690"/>
      <point x="1521" y="1731" type="curve"/>
      <point x="1447" y="1732" type="line"/>
      <point x="1447" y="1720" type="line"/>
      <point x="1376" y="1691"/>
      <point x="1332" y="1626"/>
      <point x="1332" y="1532" type="curve" smooth="yes"/>
      <point x="1332" y="1522" type="line" smooth="yes"/>
      <point x="1332" y="1370"/>
      <point x="1419" y="1274"/>
      <point x="1612" y="1274" type="curve" smooth="yes"/>
      <point x="1799" y="1274"/>
      <point x="1890" y="1370"/>
      <point x="1890" y="1545" type="curve" smooth="yes"/>
      <point x="1890" y="1551" type="line" smooth="yes"/>
      <point x="1890" y="1746"/>
      <point x="1768" y="1865"/>
    </contour>
    <component base="Rra_Simple.tm"/>
  </outline>
</glyph>
<glyph name="SaMatraIi.tm" format="2">
  <advance width="2557"/>
  <note>
SaMatraIi.tm
</note>
  <outline>
    <contour>
      <point x="1992" y="1409" type="line" smooth="yes"/>
      <point x="1992" y="1609"/>
      <point x="2075" y="1710"/>
      <point x="2245" y="1725" type="curve"/>
      <point x="2245" y="1719" type="line"/>
      <point x="2272" y="1724"/>
      <point x="2302" y="1727"/>
      <point x="2333" y="1727" type="curve" smooth="yes"/>
      <point x="2473" y="1727"/>
      <point x="2530" y="1665"/>
      <point x="2530" y="1550" type="curve" smooth="yes"/>
      <point x="2530" y="1542" type="line" smooth="yes"/>
      <point x="2530" y="1451"/>
      <point x="2491" y="1404"/>
      <point x="2408" y="1404" type="curve" smooth="yes"/>
      <point x="2318" y="1404"/>
      <point x="2279" y="1458"/>
      <point x="2279" y="1552" type="curve" smooth="yes"/>
      <point x="2279" y="1570" type="line" smooth="yes"/>
      <point x="2279" y="1637"/>
      <point x="2291" y="1690"/>
      <point x="2319" y="1731" type="curve"/>
      <point x="2245" y="1732" type="line"/>
      <point x="2245" y="1720" type="line"/>
      <point x="2173" y="1691"/>
      <point x="2130" y="1626"/>
      <point x="2130" y="1532" type="curve" smooth="yes"/>
      <point x="2130" y="1522" type="line" smooth="yes"/>
      <point x="2130" y="1370"/>
      <point x="2217" y="1274"/>
      <point x="2409" y="1274" type="curve" smooth="yes"/>
      <point x="2597" y="1274"/>
      <point x="2688" y="1370"/>
      <point x="2688" y="1545" type="curve" smooth="yes"/>
      <point x="2688" y="1551" type="line" smooth="yes"/>
      <point x="2688" y="1746"/>
      <point x="2566" y="1865"/>
      <point x="2294" y="1865" type="curve" smooth="yes"/>
      <point x="1969" y="1865"/>
      <point x="1817" y="1703"/>
      <point x="1817" y="1420" type="curve" smooth="yes"/>
      <point x="1817" y="1409" type="line" smooth="yes"/>
      <point x="1817" y="1250"/>
      <point x="1864" y="1101"/>
      <point x="1919" y="1011" type="curve"/>
      <point x="1936" y="1014"/>
      <point x="1960" y="1017"/>
      <point x="1981" y="1017" type="curve" smooth="yes"/>
      <point x="2179" y="1017"/>
      <point x="2235" y="904"/>
      <point x="2235" y="698" type="curve" smooth="yes"/>
      <point x="2235" y="441" type="line" smooth="yes"/>
      <point x="2235" y="242"/>
      <point x="2181" y="136"/>
      <point x="2034" y="136" type="curve" smooth="yes"/>
      <point x="1883" y="136"/>
      <point x="1824" y="230"/>
      <point x="1824" y="435" type="curve" smooth="yes"/>
      <point x="1824" y="769" type="line" smooth="yes"/>
      <point x="1824" y="1043"/>
      <point x="1723" y="1173"/>
      <point x="1498" y="1173" type="curve" smooth="yes"/>
      <point x="1284" y="1173"/>
      <point x="1177" y="1053"/>
      <point x="1177" y="823" type="curve" smooth="yes"/>
      <point x="1177" y="797" type="line"/>
      <point x="1172" y="797" type="line"/>
      <point x="1144" y="1027"/>
      <point x="999" y="1174"/>
      <point x="698" y="1174" type="curve" smooth="yes"/>
      <point x="320" y="1174"/>
      <point x="129" y="956"/>
      <point x="129" y="565" type="curve" smooth="yes"/>
      <point x="129" y="395" type="line" smooth="yes"/>
      <point x="129" y="140"/>
      <point x="243" y="-23"/>
      <point x="502" y="-23" type="curve" smooth="yes"/>
      <point x="744" y="-23"/>
      <point x="846" y="117"/>
      <point x="846" y="334" type="curve" smooth="yes"/>
      <point x="846" y="423" type="line" smooth="yes"/>
      <point x="846" y="629"/>
      <point x="759" y="740"/>
      <point x="580" y="740" type="curve" smooth="yes"/>
      <point x="427" y="740"/>
      <point x="334" y="649"/>
      <point x="309" y="539" type="curve"/>
      <point x="297" y="539" type="line"/>
      <point x="302" y="434" type="line"/>
      <point x="323" y="520"/>
      <point x="398" y="592"/>
      <point x="501" y="592" type="curve" smooth="yes"/>
      <point x="616" y="592"/>
      <point x="666" y="527"/>
      <point x="666" y="405" type="curve" smooth="yes"/>
      <point x="666" y="325" type="line" smooth="yes"/>
      <point x="666" y="199"/>
      <point x="615" y="125"/>
      <point x="499" y="125" type="curve" smooth="yes"/>
      <point x="368" y="125"/>
      <point x="311" y="211"/>
      <point x="311" y="356" type="curve"/>
      <point x="311" y="539" type="line"/>
      <point x="305" y="539" type="line"/>
      <point x="305" y="555"/>
      <point x="305" y="562"/>
      <point x="305" y="578" type="curve" smooth="yes"/>
      <point x="307" y="864"/>
      <point x="437" y="1014"/>
      <point x="710" y="1014" type="curve" smooth="yes"/>
      <point x="995" y="1014"/>
      <point x="1096" y="855"/>
      <point x="1096" y="557" type="curve" smooth="yes"/>
      <point x="1096" y="0" type="line"/>
      <point x="1282" y="0" type="line"/>
      <point x="1282" y="766" type="line" smooth="yes"/>
      <point x="1282" y="943"/>
      <point x="1347" y="1015"/>
      <point x="1464" y="1015" type="curve" smooth="yes"/>
      <point x="1587" y="1015"/>
      <point x="1638" y="942"/>
      <point x="1638" y="764" type="curve" smooth="yes"/>
      <point x="1638" y="437" type="line" smooth="yes"/>
      <point x="1638" y="130"/>
      <point x="1754" y="-23"/>
      <point x="2034" y="-23" type="curve" smooth="yes"/>
      <point x="2309" y="-23"/>
      <point x="2424" y="141"/>
      <point x="2424" y="447" type="curve" smooth="yes"/>
      <point x="2424" y="713" type="line" smooth="yes"/>
      <point x="2424" y="1001"/>
      <point x="2334" y="1163"/>
      <point x="2065" y="1163" type="curve" smooth="yes"/>
      <point x="2022" y="1163"/>
      <point x="1974" y="1154"/>
      <point x="1944" y="1142" type="curve"/>
      <point x="2065" y="1112" type="line"/>
      <point x="2023" y="1176"/>
      <point x="1992" y="1294"/>
      <point x="1992" y="1398" type="curve" smooth="yes"/>
    </contour>
  </outline>
</glyph>
<glyph name="ShaMatraI.tm" format="2">
  <advance width="2682"/>
  <note>
ShaMatraI.tm
</note>
  <anchor x="1078" y="1239" name="top"/>
  <outline>
    <contour>
      <point x="2123" y="1742" type="curve" smooth="yes"/>
      <point x="1868" y="1742"/>
      <point x="1729" y="1602"/>
      <point x="1729" y="1379" type="curve" smooth="yes"/>
      <point x="1729" y="1373" type="line" smooth="yes"/>
      <point x="1729" y="1280"/>
      <point x="1759" y="1194"/>
      <point x="1808" y="1147" type="curve"/>
      <point x="1984" y="1147" type="line"/>
      <point x="1936" y="1191"/>
      <point x="1908" y="1258"/>
      <point x="1908" y="1345" type="curve" smooth="yes"/>
      <point x="1908" y="1350" type="line" smooth="yes"/>
      <point x="1908" y="1506"/>
      <point x="1982" y="1586"/>
      <point x="2121" y="1586" type="curve" smooth="yes"/>
      <point x="2271" y="1586"/>
      <point x="2329" y="1505"/>
      <point x="2329" y="1323" type="curve" smooth="yes"/>
      <point x="2329" y="0" type="line"/>
      <point x="2514" y="0" type="line"/>
      <point x="2514" y="1317" type="line" smooth="yes"/>
      <point x="2514" y="1607"/>
      <point x="2397" y="1742"/>
    </contour>
    <component base="Sha.tm"/>
  </outline>
</glyph>
<glyph name="ShaMatraIi_SimpleIi.tm" format="2">
  <advance width="2157"/>
  <note>
ShaMatraIi.tm
</note>
  <anchor x="1078" y="1239" name="top"/>
  <outline>
    <contour>
      <point x="2057" y="1838" type="curve" smooth="yes"/>
      <point x="1820" y="1838"/>
      <point x="1712" y="1713"/>
      <point x="1712" y="1488" type="curve" smooth="yes"/>
      <point x="1712" y="1423" type="line" smooth="yes"/>
      <point x="1712" y="1292"/>
      <point x="1741" y="1198"/>
      <point x="1795" y="1147" type="curve"/>
      <point x="1984" y="1147" type="line"/>
      <point x="1916" y="1205"/>
      <point x="1885" y="1291"/>
      <point x="1885" y="1407" type="curve" smooth="yes"/>
      <point x="1885" y="1451" type="line"/>
      <point x="1885" y="1512" type="line" smooth="yes"/>
      <point x="1885" y="1638"/>
      <point x="1944" y="1697"/>
      <point x="2053" y="1697" type="curve" smooth="yes"/>
      <point x="2153" y="1697"/>
      <point x="2204" y="1649"/>
      <point x="2204" y="1559" type="curve" smooth="yes"/>
      <point x="2204" y="1539" type="line" smooth="yes"/>
      <point x="2204" y="1447"/>
      <point x="2160" y="1399"/>
      <point x="2058" y="1399" type="curve" smooth="yes"/>
      <point x="1969" y="1399"/>
      <point x="1910" y="1441"/>
      <point x="1881" y="1496" type="curve"/>
      <point x="1877" y="1496" type="line"/>
      <point x="1879" y="1427" type="line"/>
      <point x="1890" y="1427" type="line"/>
      <point x="1935" y="1306" type="line"/>
      <point x="1962" y="1283"/>
      <point x="2025" y="1266"/>
      <point x="2103" y="1266" type="curve" smooth="yes"/>
      <point x="2291" y="1266"/>
      <point x="2374" y="1362"/>
      <point x="2374" y="1536" type="curve" smooth="yes"/>
      <point x="2374" y="1553" type="line" smooth="yes"/>
      <point x="2374" y="1733"/>
      <point x="2274" y="1838"/>
    </contour>
    <component base="Sha.tm"/>
  </outline>
</glyph>
<glyph name="Shree_SimpleIi.tm" format="2">
  <advance width="3663"/>
  <outline>
    <contour>
      <point x="935" y="1147" type="line"/>
      <point x="745" y="1147" type="line"/>
      <point x="745" y="0" type="line"/>
      <point x="1789" y="0" type="line"/>
      <point x="1789" y="158" type="line"/>
      <point x="935" y="158" type="line"/>
    </contour>
    <contour>
      <point x="2789" y="1098" type="line"/>
      <point x="2789" y="0" type="line"/>
      <point x="2975" y="0" type="line"/>
      <point x="2975" y="1098" type="line"/>
    </contour>
    <contour>
      <point x="158" y="1147" type="line"/>
      <point x="158" y="481" type="line"/>
      <point x="158" y="-257"/>
      <point x="596" y="-593"/>
      <point x="1862" y="-593" type="curve" smooth="yes"/>
      <point x="2024" y="-593" type="line" smooth="yes"/>
      <point x="3112" y="-593"/>
      <point x="3554" y="-297"/>
      <point x="3554" y="302" type="curve" smooth="yes"/>
      <point x="3554" y="350" type="line" smooth="yes"/>
      <point x="3554" y="616"/>
      <point x="3466" y="755"/>
      <point x="3252" y="755" type="curve" smooth="yes"/>
      <point x="3098" y="755"/>
      <point x="3007" y="668"/>
      <point x="2983" y="552" type="curve"/>
      <point x="2951" y="552" type="line"/>
      <point x="2951" y="399" type="line"/>
      <point x="2965" y="399" type="line"/>
      <point x="2990" y="518"/>
      <point x="3067" y="588"/>
      <point x="3178" y="588" type="curve" smooth="yes"/>
      <point x="3316" y="588"/>
      <point x="3366" y="502"/>
      <point x="3366" y="332" type="curve" smooth="yes"/>
      <point x="3366" y="301" type="line" smooth="yes"/>
      <point x="3366" y="-193"/>
      <point x="2999" y="-432"/>
      <point x="2027" y="-432" type="curve" smooth="yes"/>
      <point x="1857" y="-432" type="line" smooth="yes"/>
      <point x="705" y="-432"/>
      <point x="347" y="-158"/>
      <point x="347" y="485" type="curve"/>
      <point x="347" y="1147" type="line"/>
    </contour>
    <contour>
      <point x="3121" y="1147" type="line"/>
      <point x="2280" y="1147" type="line"/>
      <point x="2282" y="943" type="line"/>
      <point x="2273" y="943" type="line"/>
      <point x="2255" y="1086"/>
      <point x="2172" y="1171"/>
      <point x="2000" y="1171" type="curve" smooth="yes"/>
      <point x="1786" y="1171"/>
      <point x="1668" y="1051"/>
      <point x="1668" y="783" type="curve" smooth="yes"/>
      <point x="1668" y="0" type="line"/>
      <point x="1857" y="0" type="line"/>
      <point x="1857" y="786" type="line" smooth="yes"/>
      <point x="1857" y="945"/>
      <point x="1924" y="1014"/>
      <point x="2040" y="1014" type="curve" smooth="yes"/>
      <point x="2167" y="1014"/>
      <point x="2219" y="939"/>
      <point x="2219" y="768" type="curve" smooth="yes"/>
      <point x="2219" y="0" type="line"/>
      <point x="2405" y="0" type="line"/>
      <point x="2405" y="994" type="line"/>
      <point x="3121" y="994" type="line"/>
    </contour>
    <component base="MatraIiDflt_SimpleIi.tm" xOffset="2688"/>
    <component base="RaBeak_Nonexporting" xOffset="2879"/>
  </outline>
</glyph>
<glyph name="SsaMatraU_Simple.tm" format="2">
  <advance width="3379"/>
  <note>
SsaMatraU.tm
</note>
  <outline>
    <contour>
      <point x="1257" y="153" type="line"/>
      <point x="1257" y="0" type="line"/>
      <point x="2540" y="0" type="line"/>
      <point x="2561" y="153" type="line"/>
      <point x="2036" y="153" type="line"/>
      <point x="1987" y="124" type="line"/>
      <point x="1935" y="153" type="line"/>
    </contour>
    <contour>
      <point x="1987" y="1173" type="curve" smooth="yes"/>
      <point x="1711" y="1173"/>
      <point x="1580" y="1007"/>
      <point x="1580" y="734" type="curve" smooth="yes"/>
      <point x="1580" y="566" type="line" smooth="yes"/>
      <point x="1580" y="314"/>
      <point x="1672" y="147"/>
      <point x="1932" y="60" type="curve"/>
      <point x="2013" y="121" type="line"/>
      <point x="1827" y="191"/>
      <point x="1770" y="327"/>
      <point x="1770" y="527" type="curve" smooth="yes"/>
      <point x="1770" y="721" type="line" smooth="yes"/>
      <point x="1770" y="906"/>
      <point x="1835" y="1012"/>
      <point x="1987" y="1012" type="curve" smooth="yes"/>
      <point x="2140" y="1012"/>
      <point x="2205" y="906"/>
      <point x="2205" y="721" type="curve" smooth="yes"/>
      <point x="2205" y="527" type="line" smooth="yes"/>
      <point x="2205" y="327"/>
      <point x="2148" y="191"/>
      <point x="1961" y="121" type="curve"/>
      <point x="2042" y="60" type="line"/>
      <point x="2303" y="147"/>
      <point x="2395" y="314"/>
      <point x="2395" y="566" type="curve" smooth="yes"/>
      <point x="2395" y="730" type="line" smooth="yes"/>
      <point x="2395" y="879"/>
      <point x="2356" y="989"/>
      <point x="2260" y="1050" type="curve"/>
      <point x="2261" y="1081" type="line"/>
      <point x="2202" y="1142"/>
      <point x="2114" y="1173"/>
    </contour>
    <contour>
      <point x="2461" y="1147" type="line"/>
      <point x="2127" y="1147" type="line"/>
      <point x="2154" y="994" type="line"/>
      <point x="2461" y="994" type="line"/>
    </contour>
    <component base="Va_NonExporting" xOffset="17"/>
    <component base="MatraUDflt.tm" xOffset="2283"/>
    <component base="Ssa_Below_Simple_NonExporting" xOffset="1671"/>
  </outline>
</glyph>
<glyph name="Ssa_Above_NonExporting" format="2">
  <advance width="1309"/>
  <outline>
    <contour>
      <point x="20" y="153" type="line"/>
      <point x="20" y="0" type="line"/>
      <point x="1286.991" y="0" type="line"/>
      <point x="1309" y="153" type="line"/>
      <point x="783" y="153" type="line"/>
      <point x="735" y="128" type="line"/>
      <point x="683" y="153" type="line"/>
    </contour>
    <contour>
      <point x="735" y="1173" type="curve" smooth="yes"/>
      <point x="458" y="1173"/>
      <point x="328" y="1007"/>
      <point x="328" y="734" type="curve" smooth="yes"/>
      <point x="328" y="566" type="line" smooth="yes"/>
      <point x="328" y="314"/>
      <point x="419" y="147"/>
      <point x="679" y="60" type="curve"/>
      <point x="761" y="121" type="line"/>
      <point x="574" y="191"/>
      <point x="517" y="327"/>
      <point x="517" y="527" type="curve" smooth="yes"/>
      <point x="517" y="721" type="line" smooth="yes"/>
      <point x="517" y="906"/>
      <point x="582" y="1012"/>
      <point x="735" y="1012" type="curve" smooth="yes"/>
      <point x="888" y="1012"/>
      <point x="953" y="906"/>
      <point x="953" y="721" type="curve" smooth="yes"/>
      <point x="953" y="527" type="line" smooth="yes"/>
      <point x="953" y="327"/>
      <point x="895" y="191"/>
      <point x="709" y="121" type="curve"/>
      <point x="790" y="60" type="line"/>
      <point x="1050" y="147"/>
      <point x="1142" y="314"/>
      <point x="1142" y="566" type="curve" smooth="yes"/>
      <point x="1142" y="734" type="line" smooth="yes"/>
      <point x="1142" y="1007"/>
      <point x="1012" y="1173"/>
    </contour>
  </outline>
</glyph>
<glyph name="Ssa_Below_Simple_NonExporting" format="2">
  <advance width="351"/>
  <outline>
    <contour>
      <point x="184" y="-490" type="line"/>
      <point x="184" y="-280" type="line" smooth="yes"/>
      <point x="184" y="-105"/>
      <point x="230" y="-56"/>
      <point x="332" y="0" type="curve" smooth="yes"/>
      <point x="351" y="11" type="line"/>
      <point x="235" y="43" type="line"/>
      <point x="216" y="35" type="line" smooth="yes"/>
      <point x="77" y="-23"/>
      <point x="5" y="-89"/>
      <point x="5" y="-285.009" type="curve" smooth="yes"/>
      <point x="5" y="-490" type="line"/>
    </contour>
  </outline>
</glyph>
<glyph name="TaMatraI.tm" format="2">
  <advance width="1667"/>
  <note>
TaMatraI.tm
</note>
  <outline>
    <contour>
      <point x="930" y="544" type="line"/>
      <point x="1008" y="544" type="line" smooth="yes"/>
      <point x="1229" y="544"/>
      <point x="1315" y="466"/>
      <point x="1315" y="254" type="curve" smooth="yes"/>
      <point x="1315" y="206" type="line" smooth="yes"/>
      <point x="1315" y="-103"/>
      <point x="1188" y="-212"/>
      <point x="826" y="-212" type="curve" smooth="yes"/>
      <point x="474" y="-212" type="line"/>
      <point x="499" y="-368" type="line"/>
      <point x="838" y="-368" type="line" smooth="yes"/>
      <point x="1331" y="-368"/>
      <point x="1500" y="-210"/>
      <point x="1500" y="209" type="curve" smooth="yes"/>
      <point x="1500" y="260" type="line" smooth="yes"/>
      <point x="1500" y="565"/>
      <point x="1362" y="694"/>
      <point x="1024" y="694" type="curve" smooth="yes"/>
      <point x="929.991" y="694" type="line"/>
    </contour>
    <contour>
      <point x="1171" y="1742" type="curve" smooth="yes"/>
      <point x="907" y="1742"/>
      <point x="772" y="1595"/>
      <point x="772" y="1360" type="curve"/>
      <point x="772" y="1354" type="line" smooth="yes"/>
      <point x="772" y="1272"/>
      <point x="794" y="1186"/>
      <point x="823" y="1139" type="curve"/>
      <point x="998" y="1139" type="line"/>
      <point x="970" y="1185"/>
      <point x="953" y="1250"/>
      <point x="953" y="1331" type="curve" smooth="yes"/>
      <point x="953" y="1336" type="line"/>
      <point x="953" y="1502"/>
      <point x="1023" y="1585"/>
      <point x="1168" y="1585" type="curve" smooth="yes"/>
      <point x="1324" y="1585"/>
      <point x="1381" y="1497"/>
      <point x="1381" y="1298" type="curve" smooth="yes"/>
      <point x="1381" y="748" type="line"/>
      <point x="1563" y="748" type="line"/>
      <point x="1563" y="1292" type="line" smooth="yes"/>
      <point x="1563" y="1598"/>
      <point x="1448" y="1742"/>
    </contour>
    <component base="Tail_NonExporting" xOffset="-8"/>
    <component base="KaComponent_Nonexporting" xOffset="83"/>
    <component base="KaBeak_Nonexporting" xOffset="964"/>
  </outline>
</glyph>
<glyph name="Ta_Simple.tm" format="2">
  <advance width="1620"/>
  <note>
Ta.tm
</note>
  <anchor x="917" y="1239" name="top"/>
  <outline>
    <contour>
      <point x="951" y="544" type="line"/>
      <point x="1028" y="544" type="line" smooth="yes"/>
      <point x="1249" y="544"/>
      <point x="1335" y="466"/>
      <point x="1335" y="254" type="curve" smooth="yes"/>
      <point x="1335" y="207" type="line" smooth="yes"/>
      <point x="1335" y="-103"/>
      <point x="1208" y="-212"/>
      <point x="845" y="-212" type="curve" smooth="yes"/>
      <point x="49" y="-212" type="line"/>
      <point x="74" y="-368" type="line"/>
      <point x="857" y="-368" type="line" smooth="yes"/>
      <point x="1351" y="-368"/>
      <point x="1520" y="-210"/>
      <point x="1520" y="210" type="curve" smooth="yes"/>
      <point x="1520" y="260" type="line" smooth="yes"/>
      <point x="1520" y="565"/>
      <point x="1382" y="694"/>
      <point x="1044" y="694" type="curve" smooth="yes"/>
      <point x="951" y="694" type="line"/>
    </contour>
    <component base="KaComponent_Nonexporting" xOffset="83"/>
    <component base="KaBeak_Nonexporting" xOffset="1055"/>
  </outline>
</glyph>
<glyph name="TtaMatraI_Fly.tm" format="2">
  <advance width="1545"/>
  <note>
TtaMatraI.tm
</note>
  <outline>
    <contour>
      <point x="356" y="1147" type="line"/>
      <point x="168" y="1147" type="line"/>
      <point x="168" y="0" type="line"/>
      <point x="1518" y="0" type="line"/>
      <point x="1539" y="153" type="line"/>
      <point x="355" y="153" type="line"/>
    </contour>
    <contour>
      <point x="1260" y="671" type="line"/>
      <point x="918" y="671" type="line" smooth="yes"/>
      <point x="715" y="671"/>
      <point x="629" y="601"/>
      <point x="629" y="457" type="curve" smooth="yes"/>
      <point x="629" y="359"/>
      <point x="675" y="267"/>
      <point x="747" y="149" type="curve"/>
      <point x="930" y="149" type="line"/>
      <point x="867" y="247"/>
      <point x="823" y="329"/>
      <point x="823" y="398" type="curve" smooth="yes"/>
      <point x="823" y="479"/>
      <point x="865" y="515"/>
      <point x="979" y="515" type="curve" smooth="yes"/>
      <point x="1285" y="515" type="line"/>
    </contour>
  </outline>
</glyph>
<glyph name="TtaMatraI_Simple.tm" format="2">
  <advance width="1660"/>
  <note>
TtaMatraI.tm
</note>
  <outline>
    <contour>
      <point x="489" y="153" type="line"/>
      <point x="356" y="153" type="line"/>
      <point x="356" y="1141" type="line"/>
      <point x="168" y="1141" type="line"/>
      <point x="168" y="0" type="line"/>
      <point x="489" y="0" type="line"/>
    </contour>
    <component base="Ssa_Above_NonExporting" xOffset="337"/>
    <component base="Ssa_Below_Simple_NonExporting" xOffset="755"/>
  </outline>
</glyph>
<glyph name="TtaMatraIi.tm" format="2">
  <advance width="1729"/>
  <note>
TtaMatraIi.tm
</note>
  <outline>
    <contour>
      <point x="356" y="1147" type="line"/>
      <point x="168" y="1147" type="line"/>
      <point x="168" y="0" type="line"/>
      <point x="1694" y="0" type="line"/>
      <point x="1715" y="155" type="line"/>
      <point x="355" y="155" type="line"/>
    </contour>
    <contour>
      <point x="1122" y="909" type="curve" smooth="yes"/>
      <point x="799" y="909"/>
      <point x="640" y="753"/>
      <point x="640" y="479" type="curve" smooth="yes"/>
      <point x="640" y="468" type="line" smooth="yes"/>
      <point x="640" y="334"/>
      <point x="685" y="210"/>
      <point x="735" y="147" type="curve"/>
      <point x="912" y="147" type="line"/>
      <point x="855" y="218"/>
      <point x="813" y="333"/>
      <point x="813" y="457" type="curve" smooth="yes"/>
      <point x="813" y="468" type="line" smooth="yes"/>
      <point x="813" y="651"/>
      <point x="903" y="754"/>
      <point x="1072" y="769" type="curve"/>
      <point x="1072" y="763" type="line"/>
      <point x="1100" y="768"/>
      <point x="1129" y="771"/>
      <point x="1160" y="771" type="curve" smooth="yes"/>
      <point x="1301" y="771"/>
      <point x="1357" y="708"/>
      <point x="1357" y="593" type="curve" smooth="yes"/>
      <point x="1357" y="585" type="line" smooth="yes"/>
      <point x="1357" y="492"/>
      <point x="1318" y="445"/>
      <point x="1236" y="445" type="curve" smooth="yes"/>
      <point x="1145" y="445"/>
      <point x="1107" y="499"/>
      <point x="1107" y="595" type="curve" smooth="yes"/>
      <point x="1107" y="613" type="line" smooth="yes"/>
      <point x="1107" y="680"/>
      <point x="1119" y="734"/>
      <point x="1147" y="775" type="curve"/>
      <point x="1072" y="776" type="line"/>
      <point x="1072" y="764" type="line"/>
      <point x="1001" y="735"/>
      <point x="957" y="670"/>
      <point x="957" y="575" type="curve" smooth="yes"/>
      <point x="957" y="565" type="line" smooth="yes"/>
      <point x="957" y="412"/>
      <point x="1044" y="315"/>
      <point x="1237" y="315" type="curve" smooth="yes"/>
      <point x="1425" y="315"/>
      <point x="1515" y="412"/>
      <point x="1515" y="588" type="curve" smooth="yes"/>
      <point x="1515" y="594" type="line" smooth="yes"/>
      <point x="1515" y="789"/>
      <point x="1393" y="909"/>
    </contour>
  </outline>
</glyph>
<glyph name="TtaMatraU.tm" format="2">
  <advance width="1657"/>
  <note>
TtaMatraU.tm
</note>
  <outline>
    <contour>
      <point x="748" y="1147" type="line"/>
      <point x="748" y="0" type="line"/>
      <point x="934" y="0" type="line"/>
      <point x="934" y="1147" type="line"/>
    </contour>
    <contour>
      <point x="1530" y="915" type="curve"/>
      <point x="1530" y="1398"/>
      <point x="1326" y="1645"/>
      <point x="877" y="1645" type="curve" smooth="yes"/>
      <point x="391" y="1645"/>
      <point x="155" y="1362"/>
      <point x="155" y="761" type="curve" smooth="yes"/>
      <point x="155" y="412" type="line" smooth="yes"/>
      <point x="155" y="-191"/>
      <point x="386" y="-471"/>
      <point x="863" y="-471" type="curve" smooth="yes"/>
      <point x="1300" y="-471"/>
      <point x="1499" y="-237"/>
      <point x="1499" y="232" type="curve" smooth="yes"/>
      <point x="1499" y="339" type="line" smooth="yes"/>
      <point x="1499" y="612"/>
      <point x="1412" y="760"/>
      <point x="1202" y="760" type="curve" smooth="yes"/>
      <point x="1054" y="760"/>
      <point x="965" y="668"/>
      <point x="941" y="545" type="curve"/>
      <point x="909" y="545" type="line"/>
      <point x="909" y="392" type="line"/>
      <point x="924" y="392" type="line"/>
      <point x="949" y="518"/>
      <point x="1022" y="593"/>
      <point x="1128" y="593" type="curve" smooth="yes"/>
      <point x="1260" y="593"/>
      <point x="1311" y="500"/>
      <point x="1311" y="323" type="curve" smooth="yes"/>
      <point x="1311" y="229" type="line" smooth="yes"/>
      <point x="1311" y="-138"/>
      <point x="1176" y="-310"/>
      <point x="863" y="-310" type="curve" smooth="yes"/>
      <point x="502" y="-310"/>
      <point x="343" y="-83"/>
      <point x="343" y="406" type="curve" smooth="yes"/>
      <point x="343" y="768" type="line" smooth="yes"/>
      <point x="343" y="1254"/>
      <point x="507" y="1483"/>
      <point x="877" y="1483" type="curve" smooth="yes"/>
      <point x="1200" y="1483"/>
      <point x="1342" y="1298"/>
      <point x="1342" y="913" type="curve" smooth="yes"/>
      <point x="1342" y="888"/>
      <point x="1341" y="864"/>
      <point x="1340" y="839" type="curve"/>
      <point x="1528" y="839" type="line"/>
      <point x="1529" y="862"/>
      <point x="1530" y="890"/>
    </contour>
  </outline>
</glyph>
<glyph name="VaMatraI_SimpleI.tm" format="2">
  <advance width="2498"/>
  <note>
VaMatraI.tm
</note>
  <outline>
    <contour>
      <point x="1631" y="1147" type="line"/>
      <point x="1631" y="153" type="line"/>
      <point x="1260" y="153" type="line"/>
      <point x="1264" y="0" type="line"/>
      <point x="1816" y="0" type="line"/>
      <point x="1816" y="1147" type="line"/>
    </contour>
    <contour>
      <point x="1824" y="1737" type="curve" smooth="yes"/>
      <point x="1511" y="1737"/>
      <point x="1338" y="1589"/>
      <point x="1338" y="1353" type="curve" smooth="yes"/>
      <point x="1338" y="1351" type="line" smooth="yes"/>
      <point x="1338" y="1122"/>
      <point x="1475" y="1004"/>
      <point x="1704" y="1000" type="curve"/>
      <point x="1754" y="1147" type="line"/>
      <point x="1603" y="1147"/>
      <point x="1522" y="1213"/>
      <point x="1522" y="1347" type="curve" smooth="yes"/>
      <point x="1522" y="1349" type="line" smooth="yes"/>
      <point x="1522" y="1494"/>
      <point x="1627" y="1578"/>
      <point x="1824" y="1578" type="curve" smooth="yes"/>
      <point x="2055" y="1578"/>
      <point x="2145" y="1481"/>
      <point x="2145" y="1255" type="curve" smooth="yes"/>
      <point x="2145" y="0" type="line"/>
      <point x="2330.009" y="0" type="line"/>
      <point x="2330" y="1245" type="line" smooth="yes"/>
      <point x="2330" y="1582"/>
      <point x="2180" y="1737"/>
    </contour>
    <component base="Va_NonExporting" xOffset="17"/>
  </outline>
</glyph>
<glyph name="VaMatraUu.tm" format="2">
  <advance width="2346"/>
  <note>
VaMatraUu.tm
</note>
  <anchor x="1150" y="1239" name="top"/>
  <outline>
    <contour>
      <point x="1635" y="237" type="line"/>
      <point x="1635" y="-292" type="line"/>
      <point x="1820" y="-292" type="line"/>
      <point x="1820" y="237" type="line"/>
    </contour>
    <contour>
      <point x="2070" y="305" type="curve" smooth="yes"/>
      <point x="1932" y="305"/>
      <point x="1850" y="223"/>
      <point x="1827" y="119" type="curve"/>
      <point x="1796" y="119" type="line"/>
      <point x="1796" y="-23" type="line"/>
      <point x="1809" y="-23" type="line"/>
      <point x="1834" y="80"/>
      <point x="1899" y="143"/>
      <point x="1995" y="143" type="curve" smooth="yes"/>
      <point x="2110" y="143"/>
      <point x="2152" y="69"/>
      <point x="2152" y="-71" type="curve" smooth="yes"/>
      <point x="2152" y="-88" type="line" smooth="yes"/>
      <point x="2152" y="-455"/>
      <point x="1848" y="-631"/>
      <point x="1197" y="-631" type="curve" smooth="yes"/>
      <point x="671" y="-631"/>
      <point x="284" y="-515"/>
      <point x="284" y="-360" type="curve" smooth="yes"/>
      <point x="284" y="-282"/>
      <point x="355" y="-255"/>
      <point x="469" y="-255" type="curve" smooth="yes"/>
      <point x="648" y="-255"/>
      <point x="841" y="-303"/>
      <point x="999" y="-365" type="curve"/>
      <point x="978" y="-205" type="line"/>
      <point x="856" y="-154"/>
      <point x="664" y="-107"/>
      <point x="459" y="-107" type="curve" smooth="yes"/>
      <point x="233" y="-107"/>
      <point x="101" y="-174"/>
      <point x="101" y="-340" type="curve" smooth="yes"/>
      <point x="101" y="-623"/>
      <point x="537" y="-787"/>
      <point x="1197" y="-787" type="curve" smooth="yes"/>
      <point x="1979" y="-787"/>
      <point x="2338" y="-544"/>
      <point x="2338" y="-81" type="curve" smooth="yes"/>
      <point x="2338" y="-53" type="line" smooth="yes"/>
      <point x="2338" y="179"/>
      <point x="2262" y="305"/>
    </contour>
    <component base="Va.tm" xOffset="3"/>
  </outline>
</glyph>
<glyph name="VowelAi_Fused.tm" format="2">
  <advance width="1912"/>
  <note>
vowelAi.tm
</note>
  <outline>
    <contour>
      <point x="652" y="1184" type="curve" smooth="yes"/>
      <point x="309" y="1184"/>
      <point x="125" y="1014"/>
      <point x="125" y="719" type="curve" smooth="yes"/>
      <point x="125" y="696" type="line" smooth="yes"/>
      <point x="125" y="490"/>
      <point x="238" y="348"/>
      <point x="473" y="348" type="curve" smooth="yes"/>
      <point x="693" y="348"/>
      <point x="792" y="459"/>
      <point x="792" y="638" type="curve" smooth="yes"/>
      <point x="792" y="650" type="line" smooth="yes"/>
      <point x="792" y="822"/>
      <point x="713" y="922"/>
      <point x="540" y="922" type="curve" smooth="yes"/>
      <point x="398" y="922"/>
      <point x="323" y="847"/>
      <point x="300" y="752" type="curve"/>
      <point x="286" y="752" type="line"/>
      <point x="293" y="645" type="line"/>
      <point x="314" y="724"/>
      <point x="385" y="783"/>
      <point x="476" y="783" type="curve" smooth="yes"/>
      <point x="576" y="783"/>
      <point x="622" y="734"/>
      <point x="622" y="646" type="curve" smooth="yes"/>
      <point x="622" y="634" type="line" smooth="yes"/>
      <point x="622" y="541"/>
      <point x="577" y="486"/>
      <point x="473" y="486" type="curve" smooth="yes"/>
      <point x="356" y="486"/>
      <point x="302" y="557"/>
      <point x="302" y="673" type="curve" smooth="yes"/>
      <point x="302" y="742" type="line"/>
      <point x="293" y="742" type="line"/>
      <point x="294" y="922"/>
      <point x="419" y="1035"/>
      <point x="664" y="1035" type="curve" smooth="yes"/>
      <point x="932" y="1035"/>
      <point x="1030" y="902"/>
      <point x="1030" y="650" type="curve" smooth="yes"/>
      <point x="1030" y="442" type="line"/>
      <point x="1209" y="442" type="line"/>
      <point x="1209" y="754" type="line" smooth="yes"/>
      <point x="1209" y="950"/>
      <point x="1288" y="1023"/>
      <point x="1414" y="1023" type="curve" smooth="yes"/>
      <point x="1554" y="1023"/>
      <point x="1608" y="931"/>
      <point x="1608" y="769" type="curve" smooth="yes"/>
      <point x="1608" y="679" type="line" smooth="yes"/>
      <point x="1608" y="451"/>
      <point x="1526" y="342"/>
      <point x="1260" y="326" type="curve" smooth="yes"/>
      <point x="624" y="287" type="line" smooth="yes"/>
      <point x="299" y="267"/>
      <point x="156" y="153"/>
      <point x="156" y="-99" type="curve" smooth="yes"/>
      <point x="156" y="-104" type="line" smooth="yes"/>
      <point x="156" y="-345"/>
      <point x="304" y="-490"/>
      <point x="611" y="-490" type="curve" smooth="yes"/>
      <point x="872" y="-490"/>
      <point x="1002" y="-375"/>
      <point x="1018" y="-169" type="curve"/>
      <point x="1023" y="-169" type="line"/>
      <point x="1038" y="-373"/>
      <point x="1154" y="-489"/>
      <point x="1391" y="-489" type="curve" smooth="yes"/>
      <point x="1658" y="-489"/>
      <point x="1765" y="-341"/>
      <point x="1765" y="-75" type="curve" smooth="yes"/>
      <point x="1765" y="-8"/>
      <point x="1760" y="58"/>
      <point x="1748" y="121" type="curve"/>
      <point x="1571" y="130" type="line"/>
      <point x="1582" y="65"/>
      <point x="1588" y="-2"/>
      <point x="1588" y="-70" type="curve" smooth="yes"/>
      <point x="1588" y="-239"/>
      <point x="1525" y="-335"/>
      <point x="1362" y="-335" type="curve" smooth="yes"/>
      <point x="1204" y="-335"/>
      <point x="1114" y="-256"/>
      <point x="1114" y="-51" type="curve" smooth="yes"/>
      <point x="1114" y="36" type="line"/>
      <point x="931" y="36" type="line"/>
      <point x="931" y="-38" type="line" smooth="yes"/>
      <point x="931" y="-252"/>
      <point x="827" y="-336"/>
      <point x="632" y="-336" type="curve" smooth="yes"/>
      <point x="429" y="-336"/>
      <point x="337" y="-248"/>
      <point x="337" y="-101" type="curve" smooth="yes"/>
      <point x="337" y="-98" type="line" smooth="yes"/>
      <point x="337" y="46"/>
      <point x="418" y="123"/>
      <point x="647" y="136" type="curve" smooth="yes"/>
      <point x="1295" y="174" type="line" smooth="yes"/>
      <point x="1676" y="196"/>
      <point x="1788" y="353"/>
      <point x="1788" y="685" type="curve" smooth="yes"/>
      <point x="1788" y="766" type="line" smooth="yes"/>
      <point x="1788" y="1033"/>
      <point x="1689" y="1176"/>
      <point x="1445" y="1176" type="curve" smooth="yes"/>
      <point x="1229" y="1176"/>
      <point x="1129" y="1053"/>
      <point x="1113" y="847" type="curve"/>
      <point x="1109" y="847" type="line"/>
      <point x="1078" y="1050"/>
      <point x="948" y="1184"/>
    </contour>
  </outline>
</glyph>
<glyph name="YaMatraI.tm" format="2">
  <advance width="2567"/>
  <note>
YaMatraI.tm
</note>
  <outline>
    <contour>
      <point x="1678" y="1147" type="line"/>
      <point x="1678" y="158" type="line"/>
      <point x="1307" y="158" type="line"/>
      <point x="1307" y="0" type="line"/>
      <point x="1866" y="0" type="line"/>
      <point x="1866" y="1147" type="line"/>
    </contour>
    <contour>
      <point x="1442" y="0" type="line"/>
      <point x="1442" y="158" type="line"/>
      <point x="919" y="158" type="line"/>
      <point x="919" y="1147" type="line"/>
      <point x="729" y="1147" type="line"/>
      <point x="729" y="418" type="line" smooth="yes"/>
      <point x="729" y="225"/>
      <point x="668" y="138"/>
      <point x="531" y="138" type="curve" smooth="yes"/>
      <point x="415" y="138"/>
      <point x="349" y="209"/>
      <point x="349" y="373" type="curve" smooth="yes"/>
      <point x="349" y="1147" type="line"/>
      <point x="163" y="1147" type="line"/>
      <point x="163" y="370" type="line" smooth="yes"/>
      <point x="163" y="101"/>
      <point x="276" y="-21"/>
      <point x="486" y="-21" type="curve" smooth="yes"/>
      <point x="670" y="-21"/>
      <point x="762" y="72"/>
      <point x="783" y="222" type="curve"/>
      <point x="792" y="222" type="line"/>
      <point x="790" y="0" type="line"/>
    </contour>
    <contour>
      <point x="1818" y="1742" type="curve" smooth="yes"/>
      <point x="1447" y="1742"/>
      <point x="1245" y="1545"/>
      <point x="1245" y="1212" type="curve" smooth="yes"/>
      <point x="1245" y="1192" type="line" smooth="yes"/>
      <point x="1245" y="890"/>
      <point x="1408" y="732"/>
      <point x="1698" y="713" type="curve"/>
      <point x="1698" y="873" type="line"/>
      <point x="1517" y="888"/>
      <point x="1428" y="1000"/>
      <point x="1428" y="1186" type="curve" smooth="yes"/>
      <point x="1428" y="1210" type="line" smooth="yes"/>
      <point x="1428" y="1448"/>
      <point x="1565" y="1582"/>
      <point x="1818" y="1582" type="curve" smooth="yes"/>
      <point x="2103" y="1582"/>
      <point x="2213" y="1445"/>
      <point x="2213" y="1149" type="curve" smooth="yes"/>
      <point x="2213" y="0" type="line"/>
      <point x="2399" y="0" type="line"/>
      <point x="2399" y="1140" type="line" smooth="yes"/>
      <point x="2399" y="1539"/>
      <point x="2222" y="1742"/>
    </contour>
  </outline>
</glyph>
<glyph name="YaMatraIi_SimpleIi.tm" format="2">
  <advance width="1985"/>
  <note>
YaMatraIi.tm
</note>
  <outline>
    <contour>
      <point x="1816" y="1147" type="line"/>
      <point x="1629" y="1147" type="line"/>
      <point x="1629" y="158" type="line"/>
      <point x="1264" y="158" type="line"/>
      <point x="1264" y="0" type="line"/>
      <point x="1816" y="0" type="line"/>
    </contour>
    <contour>
      <point x="1649" y="1838" type="curve" smooth="yes"/>
      <point x="1414" y="1838"/>
      <point x="1305" y="1713"/>
      <point x="1305" y="1478" type="curve" smooth="yes"/>
      <point x="1305" y="1410" type="line" smooth="yes"/>
      <point x="1305" y="1118"/>
      <point x="1427" y="999"/>
      <point x="1664" y="999" type="curve"/>
      <point x="1727" y="999" type="line"/>
      <point x="1727" y="1147" type="line"/>
      <point x="1689" y="1147" type="line"/>
      <point x="1547" y="1147"/>
      <point x="1478" y="1216"/>
      <point x="1478" y="1400" type="curve" smooth="yes"/>
      <point x="1478" y="1451" type="line"/>
      <point x="1478" y="1512" type="line" smooth="yes"/>
      <point x="1478" y="1638"/>
      <point x="1537" y="1697"/>
      <point x="1646" y="1697" type="curve" smooth="yes"/>
      <point x="1746" y="1697"/>
      <point x="1797" y="1649"/>
      <point x="1797" y="1559" type="curve" smooth="yes"/>
      <point x="1797" y="1539" type="line" smooth="yes"/>
      <point x="1797" y="1447"/>
      <point x="1753" y="1399"/>
      <point x="1651" y="1399" type="curve" smooth="yes"/>
      <point x="1562" y="1399"/>
      <point x="1503" y="1441"/>
      <point x="1474" y="1496" type="curve"/>
      <point x="1470" y="1496" type="line"/>
      <point x="1472" y="1427" type="line"/>
      <point x="1483" y="1427" type="line"/>
      <point x="1528" y="1306" type="line"/>
      <point x="1555" y="1283"/>
      <point x="1618" y="1266"/>
      <point x="1696" y="1266" type="curve" smooth="yes"/>
      <point x="1884" y="1266"/>
      <point x="1967" y="1362"/>
      <point x="1967" y="1536" type="curve" smooth="yes"/>
      <point x="1967" y="1553" type="line" smooth="yes"/>
      <point x="1967" y="1733"/>
      <point x="1866" y="1838"/>
    </contour>
    <contour>
      <point x="1410" y="0" type="line"/>
      <point x="1410" y="158" type="line"/>
      <point x="901" y="158" type="line"/>
      <point x="901" y="1147" type="line"/>
      <point x="711" y="1147" type="line"/>
      <point x="711" y="406" type="line" smooth="yes"/>
      <point x="711" y="220"/>
      <point x="654" y="135"/>
      <point x="523" y="135" type="curve" smooth="yes"/>
      <point x="411" y="135"/>
      <point x="349" y="204"/>
      <point x="349" y="362" type="curve" smooth="yes"/>
      <point x="349" y="1147" type="line"/>
      <point x="163" y="1147" type="line"/>
      <point x="163" y="359" type="line" smooth="yes"/>
      <point x="163" y="95"/>
      <point x="272" y="-24"/>
      <point x="473" y="-24" type="curve" smooth="yes"/>
      <point x="654" y="-24"/>
      <point x="744" y="70"/>
      <point x="766" y="222" type="curve"/>
      <point x="775" y="222" type="line"/>
      <point x="773" y="0" type="line"/>
    </contour>
  </outline>
</glyph>
<glyph name="YaMatraU.tm" format="2">
  <advance width="1973"/>
  <note>
YaMatraU.tm
</note>
  <anchor x="824" y="1239" name="top"/>
  <outline>
    <contour>
      <point x="1619" y="186" type="line"/>
      <point x="1619" y="-366" type="line"/>
      <point x="1805" y="-366" type="line"/>
      <point x="1805" y="186" type="line"/>
    </contour>
    <component base="Ya.tm"/>
  </outline>
</glyph>
<glyph name="YaMatraUu.tm" format="2">
  <advance width="2328"/>
  <note>
YaMatraUu.tm
</note>
  <anchor x="821" y="1239" name="top"/>
  <outline>
    <contour>
      <point x="1616" y="237" type="line"/>
      <point x="1616" y="-292" type="line"/>
      <point x="1802" y="-292" type="line"/>
      <point x="1802" y="237" type="line"/>
    </contour>
    <contour>
      <point x="2052" y="305" type="curve" smooth="yes"/>
      <point x="1914" y="305"/>
      <point x="1833" y="223"/>
      <point x="1809" y="119" type="curve"/>
      <point x="1777" y="119" type="line"/>
      <point x="1777" y="-23" type="line"/>
      <point x="1791" y="-23" type="line"/>
      <point x="1815" y="80"/>
      <point x="1880" y="143"/>
      <point x="1976" y="143" type="curve" smooth="yes"/>
      <point x="2091" y="143"/>
      <point x="2133" y="71"/>
      <point x="2133" y="-66" type="curve" smooth="yes"/>
      <point x="2133" y="-81" type="line" smooth="yes"/>
      <point x="2133" y="-465"/>
      <point x="1830" y="-648"/>
      <point x="1190" y="-648" type="curve" smooth="yes"/>
      <point x="665" y="-648"/>
      <point x="277" y="-525"/>
      <point x="277" y="-363" type="curve" smooth="yes"/>
      <point x="277" y="-283"/>
      <point x="348" y="-255"/>
      <point x="464" y="-255" type="curve" smooth="yes"/>
      <point x="646" y="-255"/>
      <point x="846" y="-303"/>
      <point x="1010" y="-366" type="curve"/>
      <point x="989" y="-204" type="line"/>
      <point x="864" y="-153"/>
      <point x="664" y="-107"/>
      <point x="456" y="-107" type="curve" smooth="yes"/>
      <point x="228" y="-107"/>
      <point x="94" y="-174"/>
      <point x="94" y="-347" type="curve" smooth="yes"/>
      <point x="94" y="-634"/>
      <point x="531" y="-802"/>
      <point x="1190" y="-802" type="curve" smooth="yes"/>
      <point x="1960" y="-802"/>
      <point x="2320" y="-557"/>
      <point x="2320" y="-75" type="curve" smooth="yes"/>
      <point x="2320" y="-49" type="line" smooth="yes"/>
      <point x="2320" y="182"/>
      <point x="2243" y="305"/>
    </contour>
    <component base="Ya.tm" xOffset="-3"/>
  </outline>
</glyph>
<glyph name="YaMatraUu_SimpleUu.tm" format="2">
  <advance width="2325"/>
  <note>
YaMatraUu.tm
</note>
  <anchor x="824" y="1239" name="top"/>
  <outline>
    <contour>
      <point x="1619" y="274" type="line"/>
      <point x="1619" y="-320" type="line"/>
      <point x="1805" y="-320" type="line"/>
      <point x="1805" y="274" type="line"/>
    </contour>
    <contour>
      <point x="2045" y="305" type="curve" smooth="yes"/>
      <point x="1912" y="305"/>
      <point x="1834" y="223"/>
      <point x="1812" y="122" type="curve"/>
      <point x="1780" y="122" type="line"/>
      <point x="1780" y="-28" type="line"/>
      <point x="1793" y="-28" type="line"/>
      <point x="1816" y="75"/>
      <point x="1880" y="137"/>
      <point x="1973" y="137" type="curve" smooth="yes"/>
      <point x="2090" y="137"/>
      <point x="2131" y="53"/>
      <point x="2131" y="-104" type="curve" smooth="yes"/>
      <point x="2131" y="-161" type="line" smooth="yes"/>
      <point x="2131" y="-424"/>
      <point x="2018" y="-556"/>
      <point x="1751" y="-556" type="curve" smooth="yes"/>
      <point x="1474" y="-556"/>
      <point x="1359" y="-424"/>
      <point x="1359" y="-166" type="curve"/>
      <point x="1359" y="-96" type="line"/>
      <point x="1174" y="-115" type="line"/>
      <point x="1174" y="-169" type="line" smooth="yes"/>
      <point x="1174" y="-522"/>
      <point x="1349" y="-716"/>
      <point x="1751" y="-716" type="curve" smooth="yes"/>
      <point x="2147" y="-716"/>
      <point x="2317" y="-524"/>
      <point x="2317" y="-161" type="curve" smooth="yes"/>
      <point x="2317" y="-88" type="line" smooth="yes"/>
      <point x="2317" y="169"/>
      <point x="2239" y="305"/>
    </contour>
    <component base="Ya.tm"/>
  </outline>
</glyph>
<glyph name="gravecomb.narrow" format="2">
  <anchor x="416" y="978" name="_top"/>
  <anchor x="304" y="1333" name="top"/>
  <outline>
    <contour>
      <point x="388" y="1368" type="line"/>
      <point x="188" y="1368" type="line"/>
      <point x="188" y="1366" type="line"/>
      <point x="333" y="1093" type="line"/>
      <point x="494" y="1093" type="line"/>
      <point x="494" y="1095" type="line"/>
    </contour>
  </outline>
</glyph>
<glyph name="two.tf" format="2">
  <advance width="1107"/>
  <outline>
    <contour>
      <point x="138" y="0" type="line"/>
      <point x="970" y="0" type="line"/>
      <point x="970" y="170" type="line"/>
      <point x="307" y="170" type="line"/>
      <point x="389" y="136" type="line"/>
      <point x="389" y="179" type="line"/>
      <point x="641" y="415" type="line" smooth="yes"/>
      <point x="841" y="602"/>
      <point x="951" y="728"/>
      <point x="951" y="927" type="curve" smooth="yes"/>
      <point x="951" y="941" type="line" smooth="yes"/>
      <point x="951" y="1170"/>
      <point x="814" y="1301"/>
      <point x="539" y="1301" type="curve" smooth="yes"/>
      <point x="372" y="1301"/>
      <point x="249" y="1252"/>
      <point x="169" y="1205" type="curve"/>
      <point x="151" y="1026" type="line"/>
      <point x="242" y="1079"/>
      <point x="363" y="1128"/>
      <point x="498" y="1128" type="curve" smooth="yes"/>
      <point x="672" y="1128"/>
      <point x="747" y="1049"/>
      <point x="747" y="916" type="curve" smooth="yes"/>
      <point x="747" y="906" type="line" smooth="yes"/>
      <point x="747" y="763"/>
      <point x="644" y="660"/>
      <point x="463" y="491" type="curve" smooth="yes"/>
      <point x="138" y="187" type="line"/>
    </contour>
  </outline>
</glyph>
